<svg width="78" height="78" viewBox="0 0 78 78" fill="none" xmlns="http://www.w3.org/2000/svg">
<path d="M29.0935 11.6153C29.6143 10.7636 30.6835 10.4265 31.5987 10.8253L37.8123 13.5332C38.3472 13.7663 38.9572 13.7541 39.4824 13.5L45.5836 10.5476C46.4822 10.1127 47.5639 10.4071 48.1182 11.2374L51.8814 16.8747C52.2054 17.36 52.7252 17.6796 53.3044 17.7498L60.0332 18.5646C61.0243 18.6846 61.7751 19.517 61.7925 20.5152L61.9106 27.2922C61.9208 27.8756 62.1852 28.4254 62.6346 28.7976L67.8547 33.121C68.6236 33.7577 68.8052 34.864 68.2801 35.7131L64.7156 41.4781C64.4087 41.9744 64.3339 42.5799 64.5107 43.136L66.5648 49.5952C66.8674 50.5466 66.422 51.5753 65.5213 52.0058L59.4058 54.9285C58.8794 55.1801 58.489 55.6491 58.3371 56.2125L56.573 62.7568C56.3132 63.7207 55.3823 64.3454 54.3919 64.2206L47.6671 63.373C47.0882 63.3001 46.5063 63.4836 46.0739 63.8754L41.0517 68.4271C40.312 69.0976 39.1911 69.1198 38.4254 68.4793L33.2264 64.1306C32.7788 63.7562 32.1901 63.596 31.6145 63.6919L24.9287 64.8058C23.9439 64.9699 22.989 64.3827 22.6911 63.4298L20.6685 56.9607C20.4944 56.4038 20.0857 55.9506 19.5497 55.7201L13.323 53.0426C12.4059 52.6483 11.92 51.638 12.1846 50.6753L13.9805 44.1396C14.1351 43.577 14.0363 42.9749 13.71 42.4912L9.91934 36.8723C9.36102 36.0447 9.49849 34.9321 10.2415 34.2653L15.2858 29.7381C15.7201 29.3484 15.9625 28.7884 15.9494 28.2051L15.7983 21.4288C15.7761 20.4307 16.4932 19.5691 17.4788 19.4098L24.1699 18.3284C24.746 18.2354 25.2526 17.8954 25.557 17.3976L29.0935 11.6153Z" fill="#EEB335"/>
<path d="M32.416 45.208C31.1893 45.208 30.1387 44.9307 29.264 44.376C28.4 43.8213 27.744 43.1013 27.296 42.216C26.8587 41.32 26.64 40.376 26.64 39.384C26.64 38.3813 26.8587 37.4373 27.296 36.552C27.744 35.656 28.4 34.936 29.264 34.392C30.1387 33.8373 31.1893 33.56 32.416 33.56C33.6427 33.56 34.688 33.8373 35.552 34.392C36.4267 34.936 37.0827 35.656 37.52 36.552C37.968 37.4373 38.192 38.3813 38.192 39.384C38.192 40.376 37.968 41.32 37.52 42.216C37.0827 43.1013 36.4267 43.8213 35.552 44.376C34.6773 44.9307 33.632 45.208 32.416 45.208ZM32.416 42.728C33.0773 42.728 33.6427 42.584 34.112 42.296C34.5813 41.9973 34.9333 41.5973 35.168 41.096C35.4133 40.584 35.536 40.0133 35.536 39.384C35.536 38.4027 35.264 37.6027 34.72 36.984C34.176 36.3547 33.408 36.04 32.416 36.04C31.4133 36.04 30.64 36.3547 30.096 36.984C29.5627 37.6027 29.296 38.4027 29.296 39.384C29.296 40.3547 29.568 41.1547 30.112 41.784C30.656 42.4133 31.424 42.728 32.416 42.728ZM44.9881 45.224C43.9001 45.224 42.9348 44.968 42.0921 44.456C41.2601 43.944 40.6148 43.2453 40.1561 42.36C39.6975 41.4747 39.4681 40.488 39.4681 39.4C39.4681 38.3227 39.6975 37.3413 40.1561 36.456C40.6148 35.56 41.2548 34.856 42.0761 34.344C42.9081 33.832 43.8575 33.576 44.9241 33.576C46.3748 33.576 47.4948 33.8747 48.2841 34.472C49.0841 35.0587 49.6495 35.8107 49.9801 36.728L47.4521 37.592C47.2708 37.1227 46.9988 36.7493 46.6361 36.472C46.2841 36.1947 45.7668 36.056 45.0841 36.056C44.5081 36.056 43.9908 36.2107 43.5321 36.52C43.0841 36.8187 42.7375 37.224 42.4921 37.736C42.2468 38.2373 42.1241 38.792 42.1241 39.4C42.1241 40.008 42.2521 40.568 42.5081 41.08C42.7641 41.592 43.1215 41.9973 43.5801 42.296C44.0495 42.5947 44.5828 42.744 45.1801 42.744C46.5561 42.744 47.4201 42.1093 47.7721 40.84H45.6921V38.6H50.4121V45H48.6841L48.2841 44.136C48.0708 44.392 47.6815 44.6373 47.1161 44.872C46.5615 45.1067 45.8521 45.224 44.9881 45.224Z" fill="white"/>
</svg>
