<svg width="17" height="19" viewBox="0 0 17 19" fill="none" xmlns="http://www.w3.org/2000/svg">
<path opacity="0.24" fill-rule="evenodd" clip-rule="evenodd" d="M9.02283 0.538281C9.57283 0.538281 10.0228 0.978281 10.0228 1.53828V15.1183L15.3128 9.81828C15.7028 9.42828 16.3428 9.43828 16.7228 9.83828C17.0928 10.2183 17.0928 10.8383 16.7228 11.2183L9.72283 18.2183H9.72183C9.32183 18.6083 8.69183 18.6083 8.30183 18.2183L1.30183 11.2183C0.901833 10.8283 0.891833 10.1983 1.27183 9.79828C1.65183 9.39828 2.28183 9.38828 2.68183 9.76828C2.68183 9.76828 2.69183 9.77828 2.70183 9.78828L7.99183 15.0783V1.48828C7.99183 0.928281 8.43183 0.488281 8.99183 0.488281L9.02283 0.538281Z" fill="white"/>
</svg>
