<svg width="20" height="20" viewBox="0 0 20 20" fill="none" xmlns="http://www.w3.org/2000/svg">
<path d="M12.72 6.791L8.43 11.091L6.78 9.441C6.42 9.021 5.78 8.971 5.37 9.331C4.95 9.681 4.9 10.321 5.26 10.741C5.29 10.771 5.32 10.811 5.36 10.841L7.71 13.201C7.89 13.381 8.15 13.491 8.42 13.491C8.68 13.481 8.93 13.381 9.12 13.201L14.12 8.201C14.51 7.811 14.51 7.171 14.12 6.781C14.11 6.771 14.11 6.771 14.11 6.771C13.71 6.381 13.09 6.381 12.7 6.77L12.72 6.791ZM10 0.00100005C4.47 0.00100005 0 4.471 0 10.001C0 15.521 4.47 20.001 10 20.001C15.52 20.001 20 15.521 20 10.001V10C20 4.47 15.52 0 10 0V0.00100005ZM10 18.001C5.58 18.001 2 14.411 2 10.001C2 5.581 5.58 2.001 10 2.001C14.41 2.001 18 5.581 18 10.001C18 14.411 14.41 18.001 10 18.001Z" fill="#67CE67"/>
</svg>
