<svg width="380" height="170" viewBox="0 0 380 170" fill="none" xmlns="http://www.w3.org/2000/svg">
<g clip-path="url(#clip0_41_112)">
<path d="M319.273 132.321C319.147 133.003 319.107 133.665 319.028 134.325C321.464 138.064 323.309 142.129 325.389 146.086C323.322 145.576 321.304 144.883 319.359 144.016C319.622 145.43 319.972 146.826 320.405 148.197C322.712 149.058 325.094 149.7 327.521 150.114C327.521 150.114 327.521 150.114 327.615 150.072L327.815 150.511L331.17 155.858C330.989 155.853 330.809 155.834 330.632 155.799C328.421 156.122 326.179 156.181 323.954 155.973C324.712 157.206 325.552 158.386 326.467 159.507C328.734 159.76 331.027 159.621 333.246 159.098C334.554 161.229 335.816 163.382 337.021 165.579C337.612 165.762 338.238 165.795 338.845 165.675C339.451 165.555 340.018 165.286 340.494 164.892C340.588 164.849 340.631 164.735 340.696 164.668C339.352 162.042 337.928 159.489 336.38 156.956C338.761 153.647 340.823 150.119 342.537 146.42C341.963 145.038 341.239 143.723 340.378 142.499C338.893 145.343 337.358 148.172 335.771 150.987C335.242 151.934 334.718 152.834 334.197 153.689C333.517 152.692 332.9 151.666 332.19 150.644C331.481 149.623 330.848 148.604 330.197 147.462C331.012 145.485 331.669 143.446 332.16 141.365C332.586 139.697 333.103 138.053 333.71 136.441C332.707 135.827 331.663 135.283 330.586 134.813C330.092 136.059 329.605 137.321 329.209 138.617C328.814 139.913 328.412 141.78 327.945 143.336C326.166 139.638 324.2 136.033 322.057 132.534C321.143 132.438 320.197 132.356 319.273 132.321Z" fill="#51AA92"/>
<path d="M331.169 155.861L327.822 150.53L327.622 150.09C327.622 150.09 327.622 150.09 327.528 150.133C325.098 149.714 322.713 149.067 320.405 148.2C321.261 150.953 322.457 153.589 323.967 156.046C326.208 156.25 328.466 156.184 330.691 155.851C330.85 155.866 331.01 155.869 331.169 155.861Z" fill="#3F695C"/>
<path d="M326.468 159.509L326.768 159.921L327.759 160.853L333.702 164.23C334.736 164.842 335.854 165.297 337.022 165.581C335.816 163.384 334.555 161.231 333.247 159.1C331.027 159.623 328.734 159.761 326.468 159.509Z" fill="#3F695C"/>
<path d="M340.632 164.698C341.206 164.017 341.625 163.219 341.861 162.361C342.765 160.081 343.407 157.707 343.777 155.283C344.103 152.264 343.649 149.212 342.459 146.419C340.751 150.128 338.694 153.666 336.317 156.985C337.864 159.519 339.288 162.071 340.632 164.698Z" fill="#3F695C"/>
<path d="M325.397 146.103C323.316 142.146 321.471 138.082 319.036 134.343C318.679 137.567 318.788 140.825 319.359 144.018C321.306 144.89 323.327 145.588 325.397 146.103Z" fill="#3F695C"/>
<path d="M329.256 138.597C329.652 137.301 330.139 136.039 330.633 134.793C327.898 133.616 325.002 132.857 322.041 132.542C324.192 136.037 326.158 139.643 327.929 143.344C328.412 141.781 328.729 140.104 329.256 138.597Z" fill="#3F695C"/>
<path d="M330.199 147.464C330.822 148.544 331.476 149.609 332.193 150.647C332.91 151.684 333.52 152.694 334.199 153.691C334.72 152.837 335.224 151.945 335.711 151.018C337.302 148.214 338.822 145.391 340.27 142.551C339.273 141.096 338.094 139.774 336.762 138.617C335.806 137.812 334.786 137.085 333.712 136.444C333.106 138.055 332.589 139.699 332.163 141.368C331.671 143.449 331.015 145.487 330.199 147.464Z" fill="#3F695C"/>
</g>
<g clip-path="url(#clip1_41_112)">
<path d="M120.273 96.3215C120.147 97.0032 120.107 97.6649 120.028 98.3252C122.464 102.064 124.309 106.129 126.389 110.086C124.322 109.576 122.304 108.883 120.359 108.016C120.622 109.43 120.972 110.826 121.405 112.197C123.712 113.058 126.094 113.7 128.521 114.114C128.521 114.114 128.521 114.114 128.615 114.072L128.815 114.511L132.17 119.858C131.989 119.853 131.809 119.834 131.632 119.799C129.421 120.122 127.179 120.181 124.954 119.973C125.712 121.206 126.552 122.386 127.467 123.507C129.734 123.76 132.027 123.621 134.246 123.098C135.554 125.229 136.816 127.382 138.021 129.579C138.612 129.762 139.238 129.795 139.845 129.675C140.451 129.555 141.018 129.286 141.494 128.892C141.588 128.849 141.631 128.735 141.696 128.668C140.352 126.042 138.928 123.489 137.38 120.956C139.761 117.647 141.823 114.119 143.537 110.42C142.963 109.038 142.239 107.723 141.378 106.499C139.893 109.343 138.358 112.172 136.771 114.987C136.242 115.934 135.718 116.834 135.197 117.689C134.517 116.692 133.9 115.666 133.19 114.644C132.481 113.623 131.848 112.604 131.197 111.462C132.012 109.485 132.669 107.446 133.16 105.365C133.586 103.697 134.103 102.053 134.71 100.441C133.707 99.8274 132.663 99.2832 131.586 98.8126C131.092 100.059 130.605 101.321 130.209 102.617C129.814 103.913 129.412 105.78 128.945 107.336C127.166 103.638 125.2 100.033 123.057 96.5338C122.143 96.4379 121.197 96.3561 120.273 96.3215Z" fill="#51AA92"/>
<path d="M132.169 119.861L128.822 114.53L128.622 114.09C128.622 114.09 128.622 114.09 128.528 114.133C126.098 113.714 123.713 113.067 121.405 112.2C122.261 114.953 123.457 117.589 124.967 120.046C127.208 120.25 129.466 120.184 131.691 119.851C131.85 119.866 132.01 119.869 132.169 119.861Z" fill="#3F695C"/>
<path d="M127.468 123.509L127.768 123.921L128.759 124.853L134.702 128.23C135.736 128.842 136.854 129.297 138.022 129.581C136.816 127.384 135.555 125.231 134.247 123.1C132.027 123.623 129.734 123.761 127.468 123.509Z" fill="#3F695C"/>
<path d="M141.632 128.698C142.206 128.017 142.625 127.219 142.861 126.361C143.765 124.081 144.407 121.707 144.777 119.283C145.103 116.264 144.649 113.212 143.459 110.419C141.751 114.128 139.694 117.666 137.317 120.985C138.864 123.519 140.288 126.071 141.632 128.698Z" fill="#3F695C"/>
<path d="M126.397 110.103C124.316 106.146 122.471 102.082 120.036 98.3426C119.679 101.567 119.788 104.825 120.359 108.018C122.306 108.89 124.327 109.588 126.397 110.103Z" fill="#3F695C"/>
<path d="M130.256 102.597C130.652 101.301 131.139 100.039 131.633 98.7926C128.898 97.6155 126.002 96.857 123.041 96.5424C125.192 100.037 127.158 103.643 128.929 107.344C129.412 105.781 129.729 104.104 130.256 102.597Z" fill="#3F695C"/>
<path d="M131.199 111.464C131.822 112.544 132.476 113.609 133.193 114.647C133.91 115.684 134.52 116.694 135.199 117.691C135.72 116.837 136.224 115.945 136.711 115.018C138.302 112.214 139.822 109.391 141.27 106.551C140.273 105.096 139.094 103.774 137.762 102.617C136.806 101.812 135.786 101.085 134.712 100.444C134.106 102.055 133.589 103.699 133.163 105.368C132.671 107.449 132.015 109.487 131.199 111.464Z" fill="#3F695C"/>
</g>
<g clip-path="url(#clip2_41_112)">
<path d="M293.21 91.9983C292.519 91.9434 291.857 91.9715 291.192 91.9612C287.723 94.7691 283.871 97.023 280.149 99.5C280.444 97.3911 280.925 95.3124 281.586 93.2884C280.207 93.6958 278.854 94.1872 277.535 94.7598C276.917 97.1428 276.524 99.5788 276.361 102.035C276.361 102.035 276.361 102.035 276.414 102.125L275.997 102.368L271.024 106.256C271.01 106.076 271.011 105.895 271.027 105.715C270.478 103.549 270.189 101.325 270.166 99.0911C269.019 99.9721 267.931 100.929 266.91 101.954C266.892 104.235 267.266 106.501 268.015 108.655C266.03 110.176 264.019 111.652 261.958 113.078C261.837 113.684 261.868 114.311 262.05 114.902C262.232 115.492 262.558 116.029 262.999 116.462C263.051 116.551 263.169 116.582 263.242 116.639C265.716 115.032 268.108 113.353 270.469 111.552C274.006 113.58 277.727 115.267 281.582 116.59C282.898 115.877 284.132 115.022 285.261 114.039C282.279 112.855 279.306 111.62 276.343 110.332C275.347 109.903 274.397 109.474 273.494 109.044C274.416 108.265 275.372 107.546 276.315 106.734C277.258 105.923 278.206 105.189 279.276 104.423C281.326 105.031 283.421 105.474 285.542 105.749C287.245 106 288.934 106.346 290.599 106.783C291.107 105.722 291.54 104.628 291.898 103.508C290.607 103.145 289.302 102.79 287.971 102.53C286.641 102.27 284.743 102.063 283.148 101.759C286.642 99.6081 290.026 97.2819 293.286 94.7892C293.287 93.8701 293.271 92.9211 293.21 91.9983Z" fill="#51AA92"/>
<path d="M271.023 106.256L275.982 102.377L276.398 102.133C276.398 102.133 276.398 102.133 276.346 102.044C276.513 99.5839 276.911 97.145 277.535 94.7596C274.884 95.8945 272.386 97.3562 270.098 99.1108C270.125 101.361 270.423 103.6 270.984 105.78C270.986 105.939 270.999 106.098 271.023 106.256Z" fill="#3F695C"/>
<path d="M266.911 101.958L266.532 102.3L265.707 103.381L262.96 109.64C262.458 110.732 262.121 111.891 261.958 113.081C264.019 111.656 266.031 110.18 268.016 108.659C267.267 106.505 266.893 104.238 266.911 101.958Z" fill="#3F695C"/>
<path d="M263.206 116.581C263.943 117.082 264.779 117.417 265.657 117.563C268.018 118.227 270.445 118.622 272.895 118.739C275.931 118.753 278.92 117.987 281.576 116.515C277.711 115.199 273.98 113.518 270.433 111.495C268.072 113.295 265.68 114.974 263.206 116.581Z" fill="#3F695C"/>
<path d="M280.134 99.509C283.856 97.032 287.708 94.7781 291.177 91.9702C287.933 91.9479 284.703 92.3919 281.586 93.2887C280.919 95.3151 280.433 97.3967 280.134 99.509Z" fill="#3F695C"/>
<path d="M287.999 102.577C289.329 102.837 290.634 103.192 291.925 103.555C292.814 100.713 293.27 97.7539 293.278 94.7766C290.023 97.2762 286.639 99.6026 283.14 101.746C284.744 102.065 286.445 102.208 287.999 102.577Z" fill="#3F695C"/>
<path d="M279.275 104.427C278.265 105.157 277.272 105.918 276.314 106.738C275.356 107.558 274.415 108.268 273.493 109.047C274.396 109.477 275.335 109.886 276.308 110.275C279.261 111.569 282.225 112.79 285.199 113.938C286.543 112.796 287.737 111.487 288.75 110.044C289.453 109.009 290.071 107.92 290.598 106.786C288.933 106.349 287.244 106.004 285.541 105.752C283.42 105.477 281.325 105.034 279.275 104.427Z" fill="#3F695C"/>
</g>
<g clip-path="url(#clip3_41_112)">
<path d="M147.724 23.9514C147.033 23.8965 146.37 23.9246 145.705 23.9143C142.237 26.7222 138.385 28.9761 134.663 31.4531C134.957 29.3442 135.438 27.2656 136.1 25.2415C134.721 25.649 133.368 26.1404 132.049 26.713C131.43 29.096 131.037 31.5319 130.875 33.9885C130.875 33.9885 130.875 33.9885 130.927 34.0778L130.511 34.3214L125.538 38.2092C125.524 38.0292 125.525 37.8483 125.541 37.6684C124.992 35.5023 124.703 33.2786 124.68 31.0442C123.532 31.9253 122.444 32.8819 121.424 33.9076C121.406 36.188 121.78 38.4545 122.529 40.6084C120.544 42.1293 118.532 43.6055 116.471 45.031C116.35 45.6371 116.382 46.2639 116.564 46.8547C116.746 47.4454 117.072 47.9816 117.513 48.4149C117.565 48.5041 117.683 48.535 117.756 48.5919C120.23 46.9849 122.622 45.3059 124.983 43.5055C128.519 45.5329 132.241 47.2199 136.096 48.5436C137.412 47.8304 138.646 46.9748 139.775 45.9922C136.793 44.8085 133.82 43.5727 130.857 42.2848C129.861 41.856 128.911 41.4268 128.007 40.9971C128.929 40.2181 129.886 39.4987 130.829 38.6875C131.772 37.8762 132.72 37.1419 133.789 36.3764C135.84 36.9841 137.935 37.4273 140.055 37.7019C141.759 37.9534 143.447 38.2987 145.113 38.7361C145.62 37.6754 146.054 36.5811 146.411 35.4609C145.121 35.0978 143.815 34.7435 142.485 34.4835C141.155 34.2234 139.257 34.0162 137.661 33.7119C141.156 31.5612 144.54 29.235 147.799 26.7424C147.801 25.8232 147.784 24.8743 147.724 23.9514Z" fill="#51AA92"/>
<path d="M125.537 38.209L130.495 34.3299L130.912 34.0863C130.912 34.0863 130.912 34.0863 130.86 33.997C131.026 31.537 131.424 29.0981 132.048 26.7128C129.398 27.8476 126.899 29.3093 124.611 31.0639C124.639 33.3143 124.937 35.5533 125.498 37.7327C125.5 37.8922 125.513 38.0514 125.537 38.209Z" fill="#3F695C"/>
<path d="M121.425 33.9111L121.045 34.2527L120.221 35.3342L117.474 41.5934C116.972 42.6847 116.634 43.8443 116.472 45.0345C118.533 43.609 120.545 42.1328 122.53 40.6119C121.781 38.458 121.407 36.1915 121.425 33.9111Z" fill="#3F695C"/>
<path d="M117.72 48.5341C118.456 49.0349 119.293 49.3699 120.171 49.5159C122.531 50.1803 124.959 50.575 127.408 50.6925C130.445 50.7059 133.434 49.9401 136.09 48.4684C132.225 47.152 128.493 45.4708 124.947 43.4476C122.586 45.2481 120.194 46.927 117.72 48.5341Z" fill="#3F695C"/>
<path d="M134.648 31.4621C138.369 28.9851 142.222 26.7312 145.69 23.9233C142.447 23.901 139.217 24.345 136.1 25.2418C135.432 27.2682 134.947 29.3498 134.648 31.4621Z" fill="#3F695C"/>
<path d="M142.512 34.5303C143.843 34.7904 145.148 35.1447 146.438 35.5077C147.328 32.6662 147.784 29.7071 147.792 26.7297C144.537 29.2294 141.153 31.5558 137.654 33.6992C139.258 34.0185 140.959 34.1614 142.512 34.5303Z" fill="#3F695C"/>
<path d="M133.788 36.3796C132.778 37.1103 131.786 37.8708 130.828 38.6907C129.87 39.5106 128.928 40.2214 128.006 41.0003C128.91 41.43 129.848 41.8394 130.821 42.2285C133.774 43.5222 136.738 44.7432 139.713 45.8913C141.057 44.7491 142.25 43.4404 143.264 41.9967C143.966 40.9623 144.584 39.873 145.112 38.7394C143.446 38.302 141.758 37.9567 140.054 37.7051C137.934 37.4305 135.839 36.9873 133.788 36.3796Z" fill="#3F695C"/>
</g>
<g clip-path="url(#clip4_41_112)">
<path d="M16.3819 70.9395C16.0673 70.9099 15.7662 70.9188 15.4638 70.91C13.9035 72.1852 12.1652 73.2022 10.4876 74.323C10.6086 73.3511 10.8146 72.3943 11.1031 71.4638C10.4784 71.6434 9.86613 71.862 9.26976 72.1183C9.00303 73.2148 8.83921 74.3371 8.78047 75.4704C8.78047 75.4704 8.78047 75.4704 8.80476 75.5119L8.61683 75.6219L6.3789 77.3864C6.37151 77.3032 6.37085 77.2197 6.37696 77.1367C6.11401 76.1332 5.96894 75.1047 5.9448 74.0729C5.42816 74.4726 4.93927 74.9076 4.48138 75.375C4.48726 76.4278 4.67121 77.4766 5.02519 78.4757C4.1316 79.1658 3.22585 79.835 2.2972 80.4805C2.24587 80.7597 2.2642 81.0492 2.35052 81.3231C2.43684 81.597 2.58843 81.8466 2.79162 82.0494C2.81592 82.0909 2.86972 82.1059 2.90339 82.1326C4.0187 81.4058 5.09629 80.6453 6.15895 79.8284C7.77995 80.7863 9.48281 81.5881 11.2446 82.223C11.8387 81.9017 12.3945 81.5143 12.9019 81.0675C11.5384 80.5026 10.1789 79.9138 8.8233 79.3009C8.36756 79.0968 7.93288 78.8928 7.51926 78.6888C7.93378 78.3348 8.36449 78.0085 8.78838 77.6398C9.21227 77.271 9.63893 76.9377 10.1207 76.5909C11.0568 76.884 12.0126 77.1016 12.9787 77.2414C13.7551 77.368 14.5251 77.5378 15.2853 77.75C15.5096 77.2633 15.7002 76.7607 15.8557 76.2457C15.2665 76.0701 14.6706 75.8985 14.064 75.7703C13.4575 75.642 12.5929 75.5347 11.8653 75.3844C13.4415 74.4128 14.9662 73.3595 16.4334 72.2286C16.4284 71.8042 16.4152 71.366 16.3819 70.9395Z" fill="#51AA92"/>
<path d="M6.37813 77.3861L8.60935 75.6255L8.79728 75.5156C8.79728 75.5156 8.79728 75.5156 8.77298 75.474C8.83368 74.3392 8.99975 73.2156 9.26899 72.118C8.07038 72.6257 6.94303 73.2853 5.91313 74.0814C5.93964 75.1206 6.0888 76.1562 6.35744 77.166C6.35908 77.2396 6.366 77.3132 6.37813 77.3861Z" fill="#3F695C"/>
<path d="M4.48143 75.375L4.31109 75.5304L3.94261 76.0247L2.73166 78.8978C2.51008 79.3986 2.36369 79.932 2.29725 80.4805C3.2259 79.835 4.13165 79.1657 5.02525 78.4757C4.67126 77.4766 4.48732 76.4278 4.48143 75.375Z" fill="#3F695C"/>
<path d="M2.88701 82.1023C3.22501 82.3381 3.60744 82.4979 4.00789 82.5707C5.08543 82.8919 6.1921 83.0891 7.30671 83.1584C8.68784 83.1833 10.0427 82.848 11.2416 82.1848C9.47554 81.5532 7.76817 80.7541 6.14258 79.7981C5.07991 80.615 4.00232 81.3755 2.88701 82.1023Z" fill="#3F695C"/>
<path d="M10.4799 74.3267C12.1575 73.2058 13.8958 72.1888 15.4561 70.9137C13.9807 70.8834 12.5144 71.0686 11.1021 71.4635C10.8111 72.3951 10.6029 73.3532 10.4799 74.3267Z" fill="#3F695C"/>
<path d="M14.0759 75.7891C14.6825 75.9173 15.2784 76.089 15.8676 76.2645C16.2545 74.958 16.4438 73.5945 16.4291 72.2198C14.9642 73.354 13.4394 74.4073 11.861 75.3755C12.5926 75.5328 13.3671 75.6092 14.0759 75.7891Z" fill="#3F695C"/>
<path d="M10.1201 76.589C9.66516 76.9201 9.21836 77.2651 8.78776 77.6378C8.35716 78.0105 7.93315 78.3329 7.51864 78.6869C7.93226 78.8909 8.36154 79.0857 8.80648 79.2713C10.1576 79.8868 11.5131 80.4688 12.873 81.0172C13.4774 80.498 14.0121 79.9011 14.4643 79.2407C14.7774 78.7674 15.0517 78.2682 15.2847 77.7481C14.5245 77.5359 13.7545 77.3661 12.9781 77.2394C12.0119 77.0997 11.0562 76.8821 10.1201 76.589Z" fill="#3F695C"/>
</g>
<g clip-path="url(#clip5_41_112)">
<path d="M213.28 41.4493C213.289 41.9672 213.359 42.4559 213.4 42.9502C215.764 45.2573 217.739 47.9017 219.873 50.4283C218.267 50.4095 216.671 50.2497 215.103 49.9507C215.51 50.9351 215.978 51.8922 216.505 52.8164C218.34 53.0496 220.198 53.1103 222.055 52.998C222.055 52.998 222.055 52.998 222.118 52.9508L222.332 53.2367L225.616 56.5576C225.482 56.5849 225.346 56.6013 225.21 56.6066C223.624 57.2191 221.975 57.6442 220.299 57.8729C221.045 58.641 221.843 59.3574 222.689 60.0173C224.402 59.8145 226.077 59.3224 227.639 58.5624C228.927 59.8911 230.183 61.2434 231.405 62.6374C231.869 62.6698 232.337 62.5867 232.767 62.3959C233.198 62.205 233.576 61.9123 233.869 61.5441C233.932 61.497 233.947 61.4066 233.984 61.3468C232.596 59.6638 231.159 58.0483 229.634 56.4675C230.896 53.6516 231.89 50.731 232.6 47.745C231.968 46.8364 231.235 46.0023 230.414 45.2579C229.744 47.5823 229.035 49.9047 228.286 52.225C228.037 53.0047 227.784 53.7501 227.528 54.4612C226.875 53.8511 226.265 53.2095 225.586 52.5868C224.908 51.9641 224.287 51.3304 223.634 50.6095C223.939 49.0309 224.118 47.4344 224.168 45.8352C224.232 44.5475 224.367 43.2622 224.573 41.9851C223.74 41.7092 222.886 41.4911 222.019 41.3323C221.841 42.3241 221.671 43.3262 221.573 44.3376C221.476 45.3491 221.46 46.7769 221.348 47.9896C219.477 45.6007 217.481 43.3108 215.37 41.1288C214.68 41.2149 213.968 41.3168 213.28 41.4493Z" fill="#51AA92"/>
<path d="M225.615 56.5597L222.338 53.249L222.124 52.9631C222.124 52.9631 222.124 52.9631 222.061 53.0103C220.201 53.1198 218.341 53.0556 216.504 52.8185C217.551 54.6775 218.832 56.3925 220.318 57.9237C222.005 57.6898 223.665 57.2567 225.26 56.6338C225.38 56.6176 225.498 56.5929 225.615 56.5597Z" fill="#3F695C"/>
<path d="M222.69 60.022L222.975 60.2709L223.847 60.7803L228.749 62.2251C229.605 62.4941 230.501 62.6346 231.406 62.6421C230.185 61.2481 228.928 59.8958 227.64 58.5671C226.078 59.327 224.404 59.8192 222.69 60.022Z" fill="#3F695C"/>
<path d="M233.943 61.3805C234.265 60.7868 234.455 60.1346 234.5 59.469C234.825 57.655 234.943 55.8164 234.852 53.9883C234.639 51.7343 233.844 49.5893 232.544 47.7583C231.839 50.7507 230.851 53.6781 229.593 56.5012C231.118 58.082 232.554 59.6975 233.943 61.3805Z" fill="#3F695C"/>
<path d="M219.881 50.4388C217.748 47.9123 215.772 45.2678 213.409 42.9607C213.631 45.3692 214.201 47.7234 215.104 49.951C216.674 50.2539 218.273 50.4171 219.881 50.4388Z" fill="#3F695C"/>
<path d="M221.606 44.3177C221.703 43.3063 221.873 42.3043 222.051 41.3124C219.852 40.9221 217.596 40.8641 215.36 41.1403C217.476 43.318 219.472 45.6081 221.339 48.0011C221.46 46.7807 221.443 45.5053 221.606 44.3177Z" fill="#3F695C"/>
<path d="M223.635 50.6098C224.258 51.2899 224.902 51.9542 225.588 52.5871C226.274 53.22 226.877 53.8514 227.53 54.4615C227.786 53.7504 228.024 53.0155 228.245 52.2568C229 49.9433 229.698 47.6288 230.342 45.3132C229.386 44.4242 228.315 43.6628 227.157 43.0476C226.328 42.6246 225.465 42.2693 224.575 41.9854C224.369 43.2625 224.234 44.5478 224.17 45.8355C224.12 47.4347 223.941 49.0312 223.635 50.6098Z" fill="#3F695C"/>
</g>
<g clip-path="url(#clip6_41_112)">
<path d="M352.868 6.98445C352.877 7.50231 352.947 7.99105 352.988 8.48531C355.352 10.7924 357.327 13.4369 359.461 15.9634C357.855 15.9447 356.259 15.7849 354.691 15.4859C355.098 16.4703 355.566 17.4273 356.093 18.3516C357.928 18.5847 359.786 18.6455 361.643 18.5331C361.643 18.5331 361.643 18.5331 361.706 18.4859L361.919 18.7718L365.204 22.0928C365.07 22.1201 364.934 22.1365 364.798 22.1418C363.212 22.7543 361.563 23.1794 359.887 23.4081C360.633 24.1761 361.431 24.8925 362.276 25.5525C363.99 25.3496 365.665 24.8575 367.227 24.0976C368.515 25.4263 369.771 26.7786 370.993 28.1726C371.457 28.2049 371.925 28.1219 372.355 27.931C372.786 27.7402 373.164 27.4474 373.457 27.0793C373.52 27.0321 373.535 26.9417 373.572 26.882C372.184 25.1989 370.747 23.5835 369.222 22.0027C370.484 19.1867 371.477 16.2661 372.188 13.2802C371.556 12.3716 370.823 11.5375 370.002 10.793C369.332 13.1175 368.623 15.4398 367.873 17.7601C367.625 18.5399 367.372 19.2853 367.116 19.9964C366.463 19.3862 365.853 18.7447 365.174 18.122C364.496 17.4993 363.875 16.8656 363.221 16.1446C363.527 14.5661 363.706 12.9696 363.756 11.3703C363.82 10.0826 363.955 8.79733 364.161 7.52024C363.327 7.24433 362.474 7.02622 361.606 6.86745C361.429 7.8593 361.259 8.86135 361.161 9.87279C361.064 10.8842 361.047 12.3121 360.936 13.5247C359.064 11.1358 357.069 8.84598 354.958 6.66392C354.268 6.75007 353.556 6.85195 352.868 6.98445Z" fill="#51AA92"/>
<path d="M365.203 22.0949L361.926 18.7841L361.712 18.4982C361.712 18.4982 361.712 18.4982 361.649 18.5454C359.789 18.6549 357.929 18.5907 356.092 18.3537C357.139 20.2126 358.42 21.9277 359.906 23.4589C361.593 23.225 363.253 22.7919 364.848 22.169C364.968 22.1528 365.086 22.128 365.203 22.0949Z" fill="#3F695C"/>
<path d="M362.278 25.5572L362.562 25.8061L363.435 26.3155L368.337 27.7603C369.193 28.0292 370.089 28.1697 370.994 28.1773C369.773 26.7833 368.516 25.431 367.228 24.1022C365.666 24.8622 363.992 25.3543 362.278 25.5572Z" fill="#3F695C"/>
<path d="M373.531 26.9157C373.853 26.3219 374.043 25.6697 374.088 25.0041C374.413 23.1902 374.531 21.3516 374.44 19.5235C374.226 17.2695 373.432 15.1244 372.131 13.2935C371.427 16.2858 370.439 19.2133 369.18 22.0364C370.706 23.6172 372.142 25.2326 373.531 26.9157Z" fill="#3F695C"/>
<path d="M359.469 15.9739C357.336 13.4474 355.36 10.8029 352.997 8.49584C353.218 10.9043 353.789 13.2585 354.692 15.4862C356.262 15.7891 357.861 15.9523 359.469 15.9739Z" fill="#3F695C"/>
<path d="M361.193 9.8529C361.291 8.84147 361.461 7.83941 361.639 6.84756C359.44 6.45721 357.184 6.39921 354.948 6.6755C357.064 8.85315 359.06 11.1433 360.926 13.5363C361.048 12.3158 361.031 11.0404 361.193 9.8529Z" fill="#3F695C"/>
<path d="M363.223 16.145C363.846 16.825 364.49 17.4894 365.176 18.1223C365.862 18.7552 366.465 19.3866 367.118 19.9967C367.374 19.2856 367.612 18.5507 367.833 17.7919C368.587 15.4784 369.286 13.1639 369.93 10.8484C368.973 9.95933 367.903 9.19799 366.744 8.58274C365.916 8.15971 365.053 7.8045 364.163 7.52056C363.957 8.79765 363.822 10.083 363.758 11.3706C363.708 12.9699 363.529 14.5664 363.223 16.145Z" fill="#3F695C"/>
</g>
<g clip-path="url(#clip7_41_112)">
<path d="M63.8547 11.2935C63.3375 11.3199 62.8512 11.4055 62.3586 11.4627C60.1294 13.8996 57.5504 15.96 55.0945 18.1743C55.0612 16.5694 55.1691 14.9688 55.417 13.3915C54.4463 13.8306 53.505 14.3298 52.5983 14.8864C52.4249 16.7278 52.4244 18.5868 52.597 20.4387C52.597 20.4387 52.597 20.4387 52.6462 20.5003L52.3674 20.7231L49.1549 24.1139C49.1232 23.9807 49.1024 23.8454 49.0927 23.7094C48.429 22.144 47.9506 20.5101 47.6676 18.8423C46.9242 19.6128 46.2341 20.4339 45.6019 21.3001C45.8603 23.0062 46.4065 24.6638 47.2168 26.2005C45.9306 27.5309 44.6198 28.8304 43.2662 30.0969C43.2489 30.5617 43.3471 31.027 43.5518 31.4509C43.7565 31.8747 44.0614 32.2436 44.4389 32.5244C44.4881 32.586 44.5789 32.5976 44.6398 32.633C46.2769 31.1906 47.8449 29.7024 49.3753 28.1265C52.2308 29.2969 55.1821 30.1948 58.1895 30.8081C59.0771 30.1467 59.887 29.3869 60.6044 28.5424C58.2594 27.9485 55.9153 27.3148 53.5718 26.6412C52.7845 26.4179 52.0312 26.1897 51.3122 25.9567C51.9008 25.2846 52.5223 24.6535 53.1226 23.9552C53.7229 23.257 54.3362 22.6156 55.0355 21.9392C56.6231 22.1934 58.2246 22.3203 59.8247 22.3187C61.1137 22.3406 62.4027 22.4339 63.6858 22.5984C63.9345 21.7562 64.1248 20.8959 64.2554 20.0238C63.2583 19.8784 62.2512 19.7409 61.2371 19.6762C60.2231 19.6116 58.7954 19.6419 57.5798 19.5701C59.9067 17.6217 62.1306 15.5531 64.243 13.3722C64.1344 12.685 64.0095 11.9774 63.8547 11.2935Z" fill="#51AA92"/>
<path d="M49.1556 24.1138L52.3583 20.7309L52.6371 20.5082C52.6371 20.5082 52.6371 20.5082 52.5878 20.4466C52.4181 18.5917 52.4218 16.73 52.5991 14.8863C50.7751 15.993 49.1026 17.3292 47.6204 18.8638C47.909 20.543 48.3957 22.1874 49.07 23.7616C49.0901 23.8807 49.1187 23.9984 49.1556 24.1138Z" fill="#3F695C"/>
<path d="M45.6042 21.301L45.3647 21.5933L44.8839 22.4821L43.599 27.4282C43.358 28.2928 43.2466 29.1924 43.2685 30.0978C44.6221 28.8314 45.9329 27.5318 47.2191 26.2015C46.4088 24.6647 45.8626 23.0072 45.6042 21.301Z" fill="#3F695C"/>
<path d="M44.6086 32.59C45.2125 32.8925 45.8705 33.0613 46.5372 33.0847C48.3608 33.351 50.2023 33.4092 52.0264 33.2582C54.2723 32.9721 56.3904 32.1082 58.1782 30.7491C55.1646 30.1422 52.2065 29.2496 49.3441 28.0834C47.8137 29.6594 46.2457 31.1475 44.6086 32.59Z" fill="#3F695C"/>
<path d="M55.0856 18.1841C57.5416 15.9697 60.1205 13.9094 62.3497 11.4724C59.9497 11.7721 57.6152 12.419 55.418 13.3934C55.1663 14.973 55.0551 16.5762 55.0856 18.1841Z" fill="#3F695C"/>
<path d="M61.2612 19.7086C62.2753 19.7732 63.2823 19.9107 64.2794 20.0561C64.5982 17.8457 64.583 15.5895 64.2342 13.3634C62.1264 15.5491 59.9023 17.6179 57.5711 19.5613C58.7949 19.6434 60.0691 19.5844 61.2612 19.7086Z" fill="#3F695C"/>
<path d="M55.0346 21.9394C54.3751 22.5841 53.732 23.2493 53.1217 23.9555C52.5114 24.6618 51.9 25.2848 51.3113 25.957C52.0304 26.19 52.7727 26.4044 53.5382 26.6003C55.875 27.2793 58.2109 27.9027 60.5461 28.4707C61.4037 27.4859 62.1299 26.3914 62.7072 25.2135C63.1031 24.3718 63.4301 23.4974 63.685 22.5987C62.4019 22.4342 61.1129 22.3408 59.8238 22.3189C58.2237 22.3206 56.6223 22.1937 55.0346 21.9394Z" fill="#3F695C"/>
</g>
<g clip-path="url(#clip8_41_112)">
<path d="M226.165 124.075C225.648 124.101 225.162 124.187 224.669 124.244C222.44 126.681 219.861 128.741 217.405 130.956C217.372 129.351 217.48 127.75 217.728 126.173C216.757 126.612 215.816 127.111 214.909 127.668C214.735 129.509 214.735 131.368 214.908 133.22C214.908 133.22 214.908 133.22 214.957 133.282L214.678 133.504L211.465 136.895C211.434 136.762 211.413 136.627 211.403 136.491C210.74 134.925 210.261 133.291 209.978 131.624C209.235 132.394 208.545 133.215 207.912 134.081C208.171 135.787 208.717 137.445 209.527 138.982C208.241 140.312 206.93 141.612 205.577 142.878C205.559 143.343 205.658 143.808 205.862 144.232C206.067 144.656 206.372 145.025 206.749 145.306C206.799 145.367 206.889 145.379 206.95 145.414C208.587 143.972 210.155 142.484 211.686 140.908C214.541 142.078 217.493 142.976 220.5 143.589C221.388 142.928 222.197 142.168 222.915 141.324C220.57 140.73 218.226 140.096 215.882 139.422C215.095 139.199 214.342 138.971 213.623 138.738C214.211 138.066 214.833 137.435 215.433 136.736C216.033 136.038 216.647 135.397 217.346 134.72C218.934 134.975 220.535 135.102 222.135 135.1C223.424 135.122 224.713 135.215 225.996 135.38C226.245 134.537 226.435 133.677 226.566 132.805C225.569 132.66 224.562 132.522 223.548 132.457C222.534 132.393 221.106 132.423 219.89 132.351C222.217 130.403 224.441 128.334 226.553 126.153C226.445 125.466 226.32 124.759 226.165 124.075Z" fill="#51AA92"/>
<path d="M211.466 136.895L214.669 133.512L214.948 133.289C214.948 133.289 214.948 133.289 214.898 133.228C214.729 131.373 214.732 129.511 214.91 127.668C213.086 128.774 211.413 130.11 209.931 131.645C210.22 133.324 210.706 134.969 211.381 136.543C211.401 136.662 211.429 136.78 211.466 136.895Z" fill="#3F695C"/>
<path d="M207.915 134.082L207.675 134.375L207.194 135.263L205.91 140.209C205.669 141.074 205.557 141.974 205.579 142.879C206.933 141.613 208.243 140.313 209.53 138.983C208.719 137.446 208.173 135.788 207.915 134.082Z" fill="#3F695C"/>
<path d="M206.919 145.371C207.523 145.674 208.181 145.843 208.848 145.866C210.671 146.132 212.513 146.19 214.337 146.039C216.583 145.753 218.701 144.889 220.489 143.53C217.475 142.923 214.517 142.031 211.655 140.865C210.124 142.441 208.556 143.929 206.919 145.371Z" fill="#3F695C"/>
<path d="M217.396 130.965C219.852 128.751 222.431 126.691 224.66 124.254C222.26 124.553 219.926 125.2 217.729 126.175C217.477 127.754 217.366 129.357 217.396 130.965Z" fill="#3F695C"/>
<path d="M223.572 132.49C224.586 132.554 225.593 132.692 226.59 132.837C226.909 130.627 226.894 128.371 226.545 126.145C224.437 128.33 222.213 130.399 219.882 132.343C221.105 132.425 222.38 132.366 223.572 132.49Z" fill="#3F695C"/>
<path d="M217.345 134.721C216.686 135.365 216.043 136.031 215.432 136.737C214.822 137.443 214.211 138.066 213.622 138.738C214.341 138.971 215.083 139.186 215.849 139.382C218.185 140.061 220.521 140.684 222.857 141.252C223.714 140.267 224.44 139.173 225.018 137.995C225.414 137.153 225.741 136.279 225.996 135.38C224.712 135.215 223.423 135.122 222.134 135.1C220.534 135.102 218.933 134.975 217.345 134.721Z" fill="#3F695C"/>
</g>
<g clip-path="url(#clip9_41_112)">
<path d="M290.256 69.5804C289.883 69.705 289.545 69.8666 289.196 70.0088C288.062 72.2452 286.595 74.2773 285.25 76.3971C284.898 75.23 284.652 74.0373 284.512 72.8331C283.891 73.3518 283.304 73.9086 282.754 74.5004C283.002 75.8826 283.381 77.2425 283.884 78.562C283.884 78.562 283.884 78.562 283.932 78.597L283.774 78.8167L282.114 81.9511C282.064 81.8601 282.021 81.7654 281.987 81.6679C281.182 80.658 280.5 79.5603 279.953 78.398C279.566 79.1129 279.229 79.854 278.943 80.6163C279.479 81.8117 280.216 82.9129 281.122 83.872C280.452 85.107 279.757 86.3245 279.025 87.5264C279.107 87.8699 279.274 88.1903 279.51 88.4587C279.746 88.727 280.044 88.9348 280.377 89.0633C280.426 89.0984 280.495 89.0883 280.546 89.1018C281.45 87.7134 282.294 86.3056 283.093 84.8413C285.42 85.116 287.761 85.1718 290.086 85.0081C290.601 84.3435 291.038 83.6229 291.391 82.8591C289.555 82.9022 287.711 82.9159 285.86 82.9003C285.238 82.8973 284.641 82.8838 284.068 82.8598C284.361 82.2483 284.687 81.6602 284.984 81.0272C285.281 80.3942 285.599 79.8002 285.973 79.163C287.186 79.0257 288.383 78.7924 289.553 78.4655C290.501 78.219 291.463 78.0248 292.435 77.8839C292.445 77.2172 292.409 76.5492 292.327 75.8847C291.568 75.9813 290.803 76.0858 290.049 76.245C289.294 76.4042 288.256 76.7171 287.352 76.912C288.657 75.0131 289.863 73.0472 290.964 71.0218C290.744 70.5413 290.509 70.0491 290.256 69.5804Z" fill="#51AA92"/>
<path d="M282.115 81.9493L283.768 78.8228L283.927 78.6031C283.927 78.6031 283.927 78.6031 283.878 78.568C283.377 77.2458 283 75.8833 282.755 74.4986C281.646 75.6795 280.694 76.9974 279.923 78.4217C280.476 79.5912 281.166 80.6949 281.98 81.7091C282.019 81.7921 282.064 81.8724 282.115 81.9493V81.9493Z" fill="#3F695C"/>
<path d="M278.944 80.6135L278.829 80.876L278.658 81.624L278.725 85.5035C278.725 86.185 278.827 86.8657 279.027 87.5235C279.759 86.3216 280.453 85.1041 281.123 83.8691C280.218 82.91 279.481 81.8088 278.944 80.6135Z" fill="#3F695C"/>
<path d="M280.516 89.0754C281.019 89.1737 281.535 89.1631 282.027 89.0445C283.415 88.8681 284.774 88.5357 286.078 88.0538C287.662 87.3872 289.036 86.324 290.067 84.9659C287.739 85.1356 285.393 85.085 283.062 84.8148C282.264 86.2792 281.42 87.6869 280.516 89.0754Z" fill="#3F695C"/>
<path d="M285.245 76.4032C286.59 74.2834 288.057 72.2512 289.192 70.0148C287.497 70.7227 285.921 71.6712 284.513 72.8312C284.65 74.0379 284.895 75.2333 285.245 76.4032V76.4032Z" fill="#3F695C"/>
<path d="M290.072 76.2616C290.827 76.1024 291.591 75.998 292.35 75.9013C292.133 74.2196 291.663 72.5723 290.954 71.0151C289.858 73.043 288.652 75.0091 287.343 76.9053C288.255 76.7162 289.174 76.4135 290.072 76.2616Z" fill="#3F695C"/>
<path d="M285.973 79.1614C285.622 79.7673 285.287 80.3848 284.985 81.0256C284.682 81.6665 284.362 82.2467 284.068 82.8582C284.641 82.8823 285.228 82.888 285.828 82.8754C287.675 82.8962 289.511 82.8766 291.335 82.8166C291.762 81.9217 292.07 80.9732 292.252 79.994C292.371 79.2978 292.432 78.5916 292.435 77.8823C291.463 78.0233 290.501 78.2174 289.554 78.4639C288.384 78.7909 287.187 79.0241 285.973 79.1614V79.1614Z" fill="#3F695C"/>
</g>
<defs>
<clipPath id="clip0_41_112">
<rect width="38.5675" height="21.0932" fill="white" transform="translate(329.943 169.836) rotate(-114.418)"/>
</clipPath>
<clipPath id="clip1_41_112">
<rect width="38.5675" height="21.0932" fill="white" transform="translate(130.943 133.836) rotate(-114.418)"/>
</clipPath>
<clipPath id="clip2_41_112">
<rect width="38.5675" height="21.0932" fill="white" transform="translate(257 106.477) rotate(-30.33)"/>
</clipPath>
<clipPath id="clip3_41_112">
<rect width="38.5675" height="21.0932" fill="white" transform="translate(111.514 38.4297) rotate(-30.33)"/>
</clipPath>
<clipPath id="clip4_41_112">
<rect width="17.4027" height="9.81512" fill="white" transform="translate(0 77.4023) rotate(-30.33)"/>
</clipPath>
<clipPath id="clip5_41_112">
<rect width="28.523" height="16.087" fill="white" transform="translate(226.812 66.9453) rotate(-126.761)"/>
</clipPath>
<clipPath id="clip6_41_112">
<rect width="28.523" height="16.087" fill="white" transform="translate(366.4 32.4805) rotate(-126.761)"/>
</clipPath>
<clipPath id="clip7_41_112">
<rect width="28.523" height="16.087" fill="white" transform="translate(38.8145 25.6484) rotate(-38.6213)"/>
</clipPath>
<clipPath id="clip8_41_112">
<rect width="28.523" height="16.087" fill="white" transform="translate(201.125 138.43) rotate(-38.6213)"/>
</clipPath>
<clipPath id="clip9_41_112">
<rect width="21.6568" height="12.2144" fill="white" transform="translate(274.863 85.1758) rotate(-54.1766)"/>
</clipPath>
</defs>
</svg>
