<svg width="67" height="44" viewBox="0 0 67 44" fill="none" xmlns="http://www.w3.org/2000/svg">
<path d="M66.754 11.3564C66.7524 10.3431 66.4546 9.3151 65.7953 8.46798L60.5063 1.70007C59.6205 0.575174 58.2724 0.00270906 56.9251 0C56.1235 0 55.3072 0.205821 54.5859 0.655566L49.4286 3.86417C48.8863 4.21022 47.9561 4.44726 47.0582 4.44143C46.3603 4.44461 45.6862 4.30492 45.2407 4.08481L40.1903 1.63867C39.3755 1.2466 38.4675 1.08575 37.5543 1.08415C36.2426 1.08997 34.9146 1.41273 33.8474 2.15243L33.2579 2.56567C32.787 2.33074 32.0669 1.97253 31.2516 1.5667C30.2738 1.08732 29.124 0.893665 27.9627 0.889967C26.9134 0.893142 25.8648 1.05452 24.9435 1.44394L21.5037 2.91171C20.9439 3.15458 20.0534 3.31277 19.1688 3.30907C18.2841 3.31278 17.3952 3.15458 16.8353 2.91171L13.3924 1.4434C12.7643 1.17566 12.0929 1.06085 11.4278 1.06033C10.6616 1.06085 9.90027 1.21218 9.19226 1.49896C8.48536 1.78733 7.82933 2.21273 7.30649 2.79687L1.03813 9.81713C0.343406 10.5923 -0.00157936 11.5696 5.4352e-06 12.5315C-0.0015818 13.6786 0.489438 14.8289 1.43608 15.6352L7.28385 20.6242L4.50924 23.5179C3.74467 24.3158 3.36371 25.3507 3.36371 26.3741C3.36212 27.4625 3.79441 28.5619 4.65104 29.371L5.21401 29.9059C5.74419 30.4086 6.38124 30.7287 7.04791 30.8996C6.7135 31.5149 6.53044 32.189 6.53202 32.8647C6.53043 33.9542 6.96272 35.0526 7.81777 35.8627L7.81618 35.8622L8.38075 36.3992C9.18394 37.1606 10.2258 37.54 11.2517 37.5395C11.803 37.54 12.3554 37.4294 12.874 37.2125C13.056 37.9511 13.4322 38.6538 14.0238 39.2151L14.5883 39.7522C15.3915 40.5136 16.4317 40.893 17.4593 40.8924C18.2624 40.893 19.0699 40.6564 19.7647 40.1966C19.9678 40.8506 20.316 41.4702 20.8462 41.9739L21.4107 42.511C22.2123 43.2724 23.2541 43.6517 24.2802 43.6512C25.3733 43.6517 26.4771 43.2226 27.2924 42.3718L29.7438 39.812L33.0746 42.8947C33.872 43.6344 34.8952 44.0021 35.9053 44C37.0148 44.0021 38.1344 43.5577 38.9514 42.683L39.4831 42.1132C39.9419 41.62 40.2419 41.037 40.4154 40.428L41.7059 41.619C42.5049 42.3556 43.5265 42.7217 44.5351 42.7212C45.6462 42.7217 46.769 42.2773 47.5865 41.4021L48.115 40.8333C48.7256 40.1809 49.069 39.373 49.1754 38.5481C49.5161 38.6354 49.8611 38.6946 50.2093 38.6946C51.3204 38.6946 52.44 38.2507 53.2586 37.3761L53.7888 36.8073C54.5301 36.0131 54.8983 34.9945 54.8967 33.9903C54.8967 33.6786 54.8517 33.368 54.783 33.0617C55.7047 32.9395 56.5983 32.5283 57.2777 31.7987L57.8095 31.2288C58.5508 30.4346 58.9175 29.4161 58.9175 28.4107C58.919 27.3049 58.473 26.189 57.5931 25.3758L56.5989 24.4572L65.5737 14.5342C66.3812 13.639 66.7526 12.4886 66.7542 11.3564L66.754 11.3564ZM6.2174 27.7367C5.82745 27.3679 5.63485 26.8774 5.63326 26.3738C5.63485 25.9013 5.80416 25.4399 6.15232 25.0769L11.8339 19.1481C12.2043 18.7619 12.6979 18.5688 13.2048 18.5677C13.6789 18.5682 14.1424 18.7391 14.5085 19.0841L15.0699 19.6196C15.0699 19.6196 15.6509 20.4789 15.6525 20.9836C15.6509 21.3614 15.5371 21.7291 15.3165 22.0476C15.2974 22.0667 9.18454 28.4378 9.18454 28.4378C8.85967 28.6674 8.47606 28.7859 8.08557 28.7875C7.6099 28.7859 7.14481 28.6161 6.78184 28.2716L6.2174 27.7367ZM11.253 35.2798C10.7773 35.2793 10.3138 35.1084 9.94927 34.7639L9.3847 34.2274L9.38311 34.2269C8.99633 33.8597 8.80214 33.3676 8.80214 32.8639C8.80214 32.3914 8.97304 31.9301 9.31961 31.5671C9.31961 31.5671 16.8928 23.6839 16.9563 23.6076C17.3182 23.2595 17.7844 23.0796 18.2664 23.079C18.7421 23.0796 19.2056 23.2499 19.5701 23.5949L20.1347 24.132C20.5231 24.4992 20.7157 24.9907 20.7173 25.4949C20.7157 25.9674 20.5453 26.4293 20.1982 26.7928L12.6218 34.7015C12.253 35.0856 11.7599 35.2782 11.253 35.2798H11.253ZM17.4611 38.6328C16.9854 38.6323 16.5219 38.4614 16.1573 38.1164L15.5917 37.5799C15.2034 37.2121 15.0092 36.7206 15.0092 36.2169C15.0092 35.7952 15.1526 35.3862 15.4272 35.046L20.7014 29.5411C21.057 29.2204 21.503 29.0511 21.9649 29.0511C22.4406 29.0517 22.9041 29.222 23.2687 29.567L23.8343 30.1041C24.2211 30.4713 24.4153 30.9628 24.4169 31.4666C24.4153 31.9401 24.2433 32.402 23.8978 32.7645L18.8294 38.0535C18.4612 38.4387 17.968 38.6313 17.4611 38.6329V38.6328ZM25.6502 40.8117C25.2814 41.1969 24.7877 41.3895 24.2809 41.3911C23.8052 41.3905 23.3417 41.2196 22.9771 40.8747L22.4126 40.3381C22.0258 39.9709 21.8316 39.4789 21.83 38.9752C21.8316 38.5017 22.002 38.0398 22.3491 37.6784L25.5475 34.3386C25.9179 33.9534 26.4116 33.7598 26.9184 33.7593C27.3925 33.7598 27.8576 33.9302 28.2222 34.2757L28.7878 34.8122C29.1746 35.1794 29.3672 35.6709 29.3688 36.1747C29.3672 36.6483 29.1968 37.1102 28.8497 37.4726L25.6502 40.8117ZM56.1487 29.6907L55.6186 30.2595C55.2482 30.6553 54.7461 30.8558 54.2318 30.8564C53.7651 30.8558 53.3085 30.6918 52.9461 30.3564L44.0109 22.0932L42.4659 23.7477L52.0301 32.6083C52.4285 32.9771 52.6286 33.4776 52.6317 33.9887C52.6285 34.4543 52.464 34.9083 52.128 35.2691L51.5994 35.8379C51.229 36.2337 50.7269 36.4332 50.2127 36.4347C49.746 36.4332 49.2878 36.2686 48.9285 35.9358L39.9902 27.6726L38.4467 29.3272L46.3787 36.6622C46.7613 37.0284 46.9565 37.5162 46.9565 38.0168C46.9565 38.4808 46.792 38.9353 46.456 39.2956L45.9258 39.8644C45.557 40.2602 45.0533 40.4607 44.538 40.4623C44.0697 40.4607 43.6131 40.2962 43.2522 39.9634L35.3362 32.6547H35.3346L35.333 32.6531L33.7922 34.3103L33.7938 34.3119L33.8235 34.3399L37.7882 37.9993C38.1395 38.3602 38.3215 38.8231 38.3231 39.3014C38.3215 39.7634 38.1586 40.2152 37.8226 40.5755L37.2924 41.1454C36.922 41.5412 36.4215 41.7401 35.9087 41.7417C35.4421 41.7401 34.9854 41.5761 34.6246 41.2417L31.1727 38.0453C31.4732 37.4558 31.641 36.8167 31.641 36.1748C31.6425 35.0864 31.2103 33.9885 30.3552 33.1779L29.7896 32.6409C28.988 31.88 27.9477 31.5001 26.9218 31.5017C26.8419 31.5017 26.762 31.5197 26.6837 31.5244C26.6837 31.5054 26.6884 31.4858 26.6884 31.4667C26.69 30.3784 25.4027 28.4682 25.4027 28.4682L24.8381 27.9328C24.2381 27.364 23.5063 27.0089 22.7444 26.8661C22.9016 26.4216 22.9899 25.9587 22.9899 25.4952C22.9899 24.4068 22.5592 23.3083 21.7042 22.4983L21.1396 21.9612C20.3364 21.1998 19.2962 20.8194 18.2702 20.8204C18.1501 20.8204 18.0321 20.8448 17.913 20.8554C17.8802 19.8098 17.4596 18.7653 16.64 17.9876V17.987L16.077 17.4521C15.2738 16.6896 14.2336 16.3097 13.2076 16.3103C12.1129 16.3097 11.0107 16.7389 10.1954 17.5897L8.85409 18.9892L2.91326 13.9224C2.48627 13.5568 2.27303 13.0515 2.27144 12.5329C2.27303 12.0985 2.42066 11.6726 2.73653 11.3192L9.00489 4.2989C9.25357 4.01953 9.62184 3.76714 10.0525 3.592C10.4832 3.41686 10.9727 3.32056 11.4298 3.32109C11.8282 3.32109 12.2018 3.39305 12.5007 3.52216L15.9421 4.99047C16.9125 5.39947 18.0385 5.5672 19.1702 5.57091C20.3035 5.56721 21.4284 5.39948 22.3983 4.99047L25.8381 3.5227C26.3683 3.29148 27.1688 3.14809 27.964 3.15126C28.844 3.14597 29.7255 3.32799 30.2365 3.58884C30.5614 3.75022 30.8694 3.90366 31.1551 4.04705L27.6471 6.51324C26.5201 7.30586 25.9121 8.56671 25.9137 9.83875C25.9121 10.6806 26.1793 11.5377 26.7222 12.2653L26.7206 12.2637L27.1841 12.8864C28.064 14.0563 29.436 14.6574 30.8075 14.6606C31.5821 14.6606 32.371 14.4648 33.0742 14.0431L35.1721 12.7833C35.6001 12.5214 36.2462 12.3563 36.9144 12.3595C37.6996 12.3547 38.4907 12.587 38.9662 12.9367L44.7707 17.0983C46.0622 18.0237 48.1665 19.7401 49.3327 20.8205L56.0509 27.0322C56.4493 27.4016 56.6493 27.9 56.6509 28.4122C56.6515 28.8752 56.4853 29.3297 56.1488 29.6906L56.1487 29.6907ZM63.8901 13.0219L54.9402 22.9184L50.8766 19.1623C49.6036 17.9871 47.5051 16.2739 46.0972 15.2627L40.2944 11.1012C39.3108 10.4043 38.106 10.1027 36.915 10.0985C35.9017 10.1017 34.8805 10.3223 33.9991 10.8472L31.9027 12.107C31.581 12.3007 31.2016 12.3991 30.8079 12.3996C30.1042 12.4017 29.3995 12.0737 29.0063 11.5388L28.5444 10.9165L28.5428 10.9149C28.2973 10.5837 28.1824 10.2117 28.1809 9.83553C28.184 9.26674 28.4465 8.71435 28.9544 8.35557L35.1577 3.99724C35.6943 3.60887 36.6483 3.33638 37.5546 3.34326C38.1842 3.34009 38.7858 3.46707 39.1975 3.67026L44.2479 6.1164C45.1087 6.52964 46.0807 6.69896 47.058 6.70107C48.3141 6.69525 49.5839 6.4217 50.63 5.77935L55.7889 2.5698C56.118 2.36398 56.5132 2.25815 56.9254 2.25815C57.6217 2.25656 58.3196 2.57244 58.7149 3.08727L64.0039 9.85517C64.3087 10.243 64.4854 10.7896 64.4854 11.3563C64.4875 11.9912 64.2637 12.6145 63.8901 13.0219L63.8901 13.0219Z" fill="#1B1C1D"/>
</svg>
