<svg width="23" height="21" viewBox="0 0 23 21" fill="none" xmlns="http://www.w3.org/2000/svg">
<path fill-rule="evenodd" clip-rule="evenodd" d="M6.48496 2.8541C4.48183 2.8541 2.88221 4.40706 2.88221 6.2958C2.88221 8.42239 4.15038 10.7029 6.11028 12.9316C7.75313 14.7923 9.75627 16.4852 11.5144 17.8423C13.2581 16.4712 15.2613 14.7923 16.9185 12.9232C18.8784 10.6945 20.1466 8.41819 20.1466 6.27761C20.1466 4.37488 18.547 2.82192 16.5439 2.82192C14.5407 2.82192 12.9411 4.37488 12.9411 6.26362C12.9411 7.03311 12.2926 7.66269 11.5 7.66269C10.693 7.66269 10.0589 7.03311 10.0589 6.26362C10.0589 4.36089 8.45927 2.80793 6.45614 2.80793L6.48496 2.8541ZM11.5288 2.36442C10.2895 0.881413 8.43045 0.027981 6.48496 0.0419716C2.91103 0.0419716 0 2.82612 0 6.28181C0 9.42971 1.81579 12.3538 3.9198 14.7322C6.05263 17.1386 8.66103 19.2344 10.6209 20.7062C11.1397 21.0979 11.8603 21.0979 12.3791 20.7062C14.3419 19.2232 16.9474 17.1386 19.0802 14.7182C21.1842 12.3258 23 9.40173 23 6.25383C23 2.78414 20.0746 0 16.515 0C14.4831 0 12.6529 0.895403 11.4712 2.30846L11.5288 2.36442Z" fill="#F03131"/>
</svg>
