<svg width="18" height="19" viewBox="0 0 18 19" fill="none" xmlns="http://www.w3.org/2000/svg">
<path fill-rule="evenodd" clip-rule="evenodd" d="M8.84959 2.51171C4.85198 2.51171 1.625 5.7387 1.625 9.7363C1.625 13.7259 4.85198 16.9609 8.84959 16.9609C12.8392 16.9609 16.0742 13.7259 16.0742 9.7363C16.0742 5.7387 12.8392 2.51171 8.84959 2.51171ZM0.0195312 9.7363C0.0195312 4.85971 3.97299 0.90625 8.84959 0.90625C13.7222 0.90625 17.6796 4.85971 17.6796 9.7363C17.6796 14.6089 13.7222 18.5664 8.84959 18.5664C3.96897 18.5664 0.0195312 14.6089 0.0195312 9.7363ZM9.853 5.92333C9.853 6.47721 9.40347 6.92674 8.84959 6.92674C8.28767 6.92674 7.84617 6.47721 7.84617 5.92333C7.84617 5.36141 8.28767 4.91991 8.84959 4.91991C9.40347 4.91991 9.853 5.36141 9.853 5.92333ZM8.04685 8.13084C7.59732 8.13084 7.24412 8.48404 7.24412 8.93357C7.24412 9.37508 7.59732 9.7363 8.04685 9.7363V13.75C8.04685 14.1915 8.40006 14.5527 8.84959 14.5527C9.29109 14.5527 9.65232 14.1915 9.65232 13.75V8.93357C9.65232 8.48404 9.29109 8.13084 8.84959 8.13084H8.04685Z" fill="#393832"/>
</svg>
