<svg width="61" height="61" viewBox="0 0 61 61" fill="none" xmlns="http://www.w3.org/2000/svg">
<rect opacity="0.08" x="0.783569" y="1.45996" width="58.9005" height="58.9005" rx="11.5" stroke="#1B1C1D"/>
<path fill-rule="evenodd" clip-rule="evenodd" d="M30.2339 21.1084C24.8102 21.1084 20.432 25.4866 20.432 30.9103C20.432 36.3231 24.8102 40.7122 30.2339 40.7122C35.6467 40.7122 40.0358 36.3231 40.0358 30.9103C40.0358 25.4866 35.6467 21.1084 30.2339 21.1084ZM18.2538 30.9103C18.2538 24.294 23.6176 18.9302 30.2339 18.9302C36.8447 18.9302 42.214 24.294 42.214 30.9103C42.214 37.5211 36.8447 42.8904 30.2339 42.8904C23.6122 42.8904 18.2538 37.5211 18.2538 30.9103ZM31.5953 25.7371C31.5953 26.4885 30.9854 27.0984 30.2339 27.0984C29.4715 27.0984 28.8725 26.4885 28.8725 25.7371C28.8725 24.9747 29.4715 24.3757 30.2339 24.3757C30.9854 24.3757 31.5953 24.9747 31.5953 25.7371ZM29.1448 28.7321C28.5349 28.7321 28.0557 29.2113 28.0557 29.8212C28.0557 30.4202 28.5349 30.9103 29.1448 30.9103V36.3558C29.1448 36.9548 29.624 37.4449 30.2339 37.4449C30.8329 37.4449 31.323 36.9548 31.323 36.3558V29.8212C31.323 29.2113 30.8329 28.7321 30.2339 28.7321H29.1448Z" fill="#393832"/>
</svg>
