<svg width="28" height="32" viewBox="0 0 28 32" fill="none" xmlns="http://www.w3.org/2000/svg">
<path d="M26.4924 0.77801C26.3874 0.417794 26.1071 0.0937301 25.7219 0.0216431C25.3366 -0.0504503 24.9513 0.0575638 24.7063 0.345687C24.6711 0.381859 21.4138 3.98296 15.2144 4.59515H15.1443C15.0392 4.59515 12.8326 4.95537 10.3808 6.2518C7.0535 7.98028 4.84685 10.5731 4.00624 13.7422C3.5159 15.6508 3.55083 17.7035 4.1113 19.6839C4.88185 22.2767 6.2828 24.3292 8.20926 25.6978C7.92902 26.058 7.4387 26.5981 6.84327 27.1743L3.02557 29.7313C2.25502 30.0915 1.4495 30.3793 0.538652 30.5956C0.153361 30.6677 -0.056747 31.0638 0.0133724 31.4599C0.0834918 31.784 0.363725 32 0.678916 32H0.854092C5.72261 30.8475 8.55966 27.6066 9.47032 26.4182C10.206 26.7784 10.9763 27.0663 11.817 27.2464C12.6926 27.4265 13.6032 27.5345 14.4789 27.5345C17.491 27.5345 20.4683 26.4182 22.7799 24.2936C26.4927 20.9801 30.1358 14.1378 26.4927 0.778203L26.4924 0.77801ZM24.5311 6.21566C24.4961 6.46786 23.6205 12.6977 17.7362 15.0384C17.7012 15.0384 17.7012 15.0744 17.666 15.0744C17.5959 15.1103 16.8254 15.3266 15.8447 15.9746C14.6187 16.7669 13.0077 18.2794 11.8867 20.8722C11.6414 21.4122 11.4313 22.0247 11.2564 22.6727C11.1863 22.9968 10.9061 23.2128 10.5909 23.2128C10.5208 23.2128 10.4509 23.2128 10.4157 23.1769C10.0304 23.0689 9.82029 22.6727 9.92535 22.2766C11.7819 15.4705 16.7203 13.85 17.2807 13.6699C17.526 13.5619 17.7361 13.4539 17.9811 13.3459C21.0634 11.8334 22.3593 8.98836 22.8496 7.33196C23.0597 6.5756 23.1648 6.07144 23.1648 5.99961C23.1997 5.60347 23.5501 5.31533 23.9354 5.38745C24.3209 5.45929 24.6011 5.81951 24.531 6.21564L24.5311 6.21566Z" fill="#67CE67"/>
</svg>
