<svg width="12" height="12" viewBox="0 0 12 12" fill="none" xmlns="http://www.w3.org/2000/svg">
<path opacity="0.6" d="M11.9313 0.62C11.8213 0.37 11.6313 0.18 11.3913 0.0799999C11.2613 0.0199999 11.1413 0 11.0113 0H1.01126C0.451262 0 0.0112618 0.44 0.0112618 1C0.0112618 1.55 0.451262 2 1.01126 2H8.60126L0.301262 10.29C-0.0987383 10.67 -0.098738 11.31 0.291262 11.7H0.281262C0.661262 12.09 1.30126 12.09 1.69126 11.7C1.69126 11.69 1.69126 11.69 1.69126 11.69L9.98126 3.39V10.98C9.98126 11.53 10.4213 11.98 10.9813 11.98C11.5313 11.98 11.9813 11.53 11.9813 10.98V0.98C11.9713 0.84 11.9513 0.72 11.9013 0.6L11.9313 0.62Z" fill="white"/>
</svg>
