<svg width="141" height="35" viewBox="0 0 141 35" fill="none" xmlns="http://www.w3.org/2000/svg">
<path d="M43.679 11.376C45.375 11.376 46.791 11.992 47.927 13.224C49.063 14.456 49.631 15.984 49.631 17.808C49.631 19.632 49.063 21.16 47.927 22.392C46.791 23.624 45.375 24.24 43.679 24.24C42.095 24.24 40.783 23.672 39.743 22.536V28.8H36.503V11.616H39.743V13.08C40.783 11.944 42.095 11.376 43.679 11.376ZM40.679 20.304C41.303 20.96 42.079 21.288 43.007 21.288C43.935 21.288 44.711 20.96 45.335 20.304C45.959 19.632 46.271 18.8 46.271 17.808C46.271 16.816 45.959 15.992 45.335 15.336C44.711 14.68 43.935 14.352 43.007 14.352C42.079 14.352 41.303 14.688 40.679 15.36C40.055 16.016 39.743 16.832 39.743 17.808C39.743 18.8 40.055 19.632 40.679 20.304ZM54.9774 24H51.7374V6.24H54.9774V24ZM62.7573 11.376C64.3253 11.376 65.5973 11.784 66.5733 12.6C67.5493 13.416 68.0373 14.608 68.0373 16.176V24H64.7973V22.488C63.8213 23.656 62.5173 24.24 60.8853 24.24C59.7173 24.24 58.7493 23.92 57.9813 23.28C57.2293 22.624 56.8533 21.76 56.8533 20.688C56.8533 18.368 58.4453 17.04 61.6293 16.704L63.6453 16.512C64.4133 16.464 64.7973 16.136 64.7973 15.528C64.7973 15.08 64.6053 14.72 64.2213 14.448C63.8533 14.176 63.3733 14.04 62.7813 14.04C62.1413 14.04 61.6133 14.208 61.1973 14.544C60.7973 14.864 60.5413 15.32 60.4293 15.912L57.2133 15.192C57.3893 14.088 57.9733 13.176 58.9653 12.456C59.9573 11.736 61.2213 11.376 62.7573 11.376ZM61.6773 21.672C62.5253 21.672 63.2533 21.384 63.8613 20.808C64.4853 20.232 64.7973 19.568 64.7973 18.816V18.552C64.6373 18.68 64.2693 18.784 63.6933 18.864L61.6053 19.104C61.1413 19.168 60.7733 19.32 60.5013 19.56C60.2293 19.784 60.0933 20.072 60.0933 20.424C60.0933 20.792 60.2373 21.096 60.5253 21.336C60.8133 21.56 61.1973 21.672 61.6773 21.672ZM77.6148 11.376C79.0868 11.376 80.2868 11.856 81.2148 12.816C82.1428 13.776 82.6068 15 82.6068 16.488V24H79.3668V17.064C79.3668 16.264 79.1028 15.608 78.5748 15.096C78.0628 14.584 77.3908 14.328 76.5588 14.328C75.7428 14.328 75.0708 14.584 74.5428 15.096C74.0148 15.608 73.7508 16.264 73.7508 17.064V24H70.5108V11.616H73.7508V13.224C74.6948 11.992 75.9828 11.376 77.6148 11.376ZM86.039 14.472H83.543V11.616H86.039V7.968L89.279 6.96V11.616H92.495V14.472H89.279V19.392C89.279 20.56 89.863 21.144 91.031 21.144H92.495V24H91.031C89.335 24 88.079 23.608 87.263 22.824C86.447 22.024 86.039 20.816 86.039 19.2V14.472ZM95.505 22.392C94.241 21.16 93.609 19.632 93.609 17.808C93.609 15.984 94.241 14.456 95.505 13.224C96.769 11.992 98.345 11.376 100.233 11.376C102.121 11.376 103.697 11.992 104.961 13.224C106.225 14.456 106.857 15.984 106.857 17.808C106.857 19.632 106.225 21.16 104.961 22.392C103.697 23.624 102.121 24.24 100.233 24.24C98.345 24.24 96.769 23.624 95.505 22.392ZM96.969 17.808C96.969 18.8 97.281 19.632 97.905 20.304C98.529 20.96 99.305 21.288 100.233 21.288C101.161 21.288 101.937 20.96 102.561 20.304C103.185 19.632 103.497 18.8 103.497 17.808C103.497 16.816 103.185 15.992 102.561 15.336C101.937 14.68 101.161 14.352 100.233 14.352C99.305 14.352 98.529 14.688 97.905 15.36C97.281 16.016 96.969 16.832 96.969 17.808ZM108.636 8.184C108.636 7.64 108.828 7.184 109.212 6.816C109.596 6.432 110.06 6.24 110.604 6.24C111.132 6.24 111.588 6.432 111.972 6.816C112.356 7.184 112.548 7.64 112.548 8.184C112.548 8.712 112.356 9.168 111.972 9.552C111.588 9.936 111.132 10.128 110.604 10.128C110.06 10.128 109.596 9.936 109.212 9.552C108.828 9.168 108.636 8.712 108.636 8.184ZM112.212 24H108.972V11.616H112.212V24ZM124.216 13.08V6.24H127.456V24H124.216V22.536C123.176 23.672 121.864 24.24 120.28 24.24C118.584 24.24 117.168 23.624 116.032 22.392C114.896 21.16 114.328 19.632 114.328 17.808C114.328 15.984 114.896 14.456 116.032 13.224C117.168 11.992 118.584 11.376 120.28 11.376C121.864 11.376 123.176 11.944 124.216 13.08ZM118.624 20.304C119.248 20.96 120.024 21.288 120.952 21.288C121.88 21.288 122.656 20.96 123.28 20.304C123.904 19.632 124.216 18.8 124.216 17.808C124.216 16.816 123.904 15.992 123.28 15.336C122.656 14.68 121.88 14.352 120.952 14.352C120.024 14.352 119.248 14.688 118.624 15.36C118 16.016 117.688 16.832 117.688 17.808C117.688 18.8 118 19.632 118.624 20.304ZM129.322 20.664L132.562 19.992C132.706 21.112 133.442 21.672 134.77 21.672C135.426 21.672 135.954 21.552 136.354 21.312C136.754 21.056 136.954 20.744 136.954 20.376C136.954 20.024 136.77 19.744 136.402 19.536C136.05 19.328 135.602 19.192 135.058 19.128C134.53 19.064 133.946 18.96 133.306 18.816C132.682 18.672 132.098 18.496 131.554 18.288C131.026 18.08 130.578 17.72 130.21 17.208C129.858 16.696 129.682 16.056 129.682 15.288C129.682 14.168 130.162 13.24 131.122 12.504C132.098 11.752 133.314 11.376 134.77 11.376C136.226 11.376 137.426 11.704 138.37 12.36C139.314 13 139.874 13.864 140.05 14.952L136.834 15.624C136.674 14.504 135.986 13.944 134.77 13.944C134.242 13.944 133.802 14.056 133.45 14.28C133.114 14.504 132.946 14.792 132.946 15.144C132.946 15.512 133.122 15.8 133.474 16.008C133.842 16.216 134.29 16.352 134.818 16.416C135.362 16.48 135.946 16.592 136.57 16.752C137.21 16.896 137.794 17.072 138.322 17.28C138.866 17.488 139.314 17.856 139.666 18.384C140.034 18.896 140.218 19.544 140.218 20.328C140.218 21.432 139.69 22.36 138.634 23.112C137.578 23.864 136.29 24.24 134.77 24.24C133.25 24.24 132.002 23.92 131.026 23.28C130.066 22.624 129.498 21.752 129.322 20.664Z" fill="white"/>
<path d="M20.1847 6.58351C20.1047 6.31335 19.8912 6.0703 19.5976 6.01623C19.3041 5.96216 19.0105 6.04317 18.8238 6.25927C18.797 6.28639 16.3153 8.98722 11.5919 9.44637H11.5385C11.4585 9.44637 9.77718 9.71653 7.90921 10.6889C5.3741 11.9852 3.69283 13.9298 3.05237 16.3066C2.67878 17.7381 2.7054 19.2777 3.13242 20.7629C3.71951 22.7075 4.7869 24.2469 6.25467 25.2733C6.04116 25.5435 5.66758 25.9486 5.21392 26.3807L2.3052 28.2984C1.71811 28.5686 1.10438 28.7845 0.410401 28.9467C0.116846 29.0008 -0.0432358 29.2979 0.0101885 29.5949C0.0636128 29.838 0.277124 30 0.517269 30H0.650737C4.36008 29.1356 6.52165 26.705 7.21548 25.8136C7.77598 26.0838 8.36288 26.2997 9.00344 26.4348C9.67059 26.5699 10.3644 26.6509 11.0315 26.6509C13.3265 26.6509 15.5949 25.8137 17.3561 24.2202C20.1849 21.7351 22.9606 16.6033 20.1849 6.58365L20.1847 6.58351ZM18.6903 10.6617C18.6637 10.8509 17.9966 15.5233 13.5133 17.2788C13.4866 17.2788 13.4866 17.3058 13.4598 17.3058C13.4064 17.3327 12.8193 17.4949 12.0721 17.981C11.138 18.5752 9.91061 19.7095 9.05657 21.6541C8.86967 22.0592 8.70959 22.5185 8.57631 23.0046C8.52289 23.2476 8.30938 23.4096 8.06923 23.4096C8.01581 23.4096 7.96257 23.4096 7.93577 23.3827C7.64221 23.3017 7.48213 23.0046 7.56217 22.7075C8.97672 17.6029 12.7392 16.3875 13.1662 16.2524C13.3531 16.1714 13.5132 16.0904 13.6999 16.0094C16.0483 14.875 17.0356 12.7413 17.4092 11.499C17.5693 10.9317 17.6494 10.5536 17.6494 10.4997C17.676 10.2026 17.9429 9.9865 18.2365 10.0406C18.5302 10.0945 18.7437 10.3646 18.6903 10.6617L18.6903 10.6617Z" fill="#67CE67"/>
</svg>
