<svg width="45" height="45" viewBox="0 0 45 45" fill="none" xmlns="http://www.w3.org/2000/svg">
<path d="M21.1235 1.14368C21.8764 0.488085 22.9975 0.488085 23.7503 1.14368L26.9903 3.96495C27.4303 4.34813 28.0158 4.52004 28.5931 4.43559L32.844 3.81383C33.8318 3.66935 34.7749 4.27543 35.0538 5.23398L36.2542 9.35904C36.4172 9.9193 36.8168 10.3804 37.3481 10.6215L41.2604 12.3967C42.1695 12.8092 42.6352 13.8289 42.3516 14.7861L41.1312 18.9053C40.9654 19.4647 41.0523 20.0687 41.3689 20.5588L43.7004 24.1673C44.2422 25.0058 44.0826 26.1154 43.3265 26.7673L40.0729 29.5728C39.631 29.9538 39.3775 30.5088 39.3789 31.0923L39.3894 35.3885C39.3918 36.3868 38.6577 37.234 37.6692 37.3737L33.4153 37.9747C32.8376 38.0563 32.3243 38.3862 32.01 38.8779L29.6961 42.4976C29.1585 43.3388 28.0828 43.6546 27.1757 43.2377L23.2722 41.4435C22.742 41.1998 22.1319 41.1998 21.6017 41.4435L17.6981 43.2377C16.791 43.6546 15.7154 43.3388 15.1777 42.4976L12.8639 38.8779C12.5496 38.3862 12.0363 38.0563 11.4585 37.9747L7.20466 37.3737C6.21616 37.234 5.48204 36.3868 5.48447 35.3885L5.49493 31.0923C5.49636 30.5088 5.24289 29.9538 4.80098 29.5728L1.54733 26.7673C0.791263 26.1154 0.631723 25.0058 1.1735 24.1673L3.50496 20.5588C3.82162 20.0687 3.90845 19.4647 3.7427 18.9053L2.5223 14.7861C2.23871 13.8289 2.70441 12.8092 3.61351 12.3967L7.52575 10.6215C8.05711 10.3804 8.45668 9.9193 8.61971 9.35904L9.82003 5.23398C10.099 4.27543 11.042 3.66935 12.0298 3.81383L16.2807 4.43559C16.8581 4.52004 17.4435 4.34813 17.8836 3.96495L21.1235 1.14368Z" fill="#EEB335"/>
<path d="M21.8977 22.6364C21.8977 23.5966 21.7131 24.4105 21.3438 25.0781C20.9744 25.7457 20.4744 26.2528 19.8438 26.5994C19.2159 26.946 18.5114 27.1193 17.7301 27.1193C16.946 27.1193 16.2401 26.9446 15.6122 26.5952C14.9844 26.2457 14.4858 25.7386 14.1165 25.0739C13.75 24.4062 13.5668 23.5937 13.5668 22.6364C13.5668 21.6761 13.75 20.8622 14.1165 20.1946C14.4858 19.527 14.9844 19.0199 15.6122 18.6733C16.2401 18.3267 16.946 18.1534 17.7301 18.1534C18.5114 18.1534 19.2159 18.3267 19.8438 18.6733C20.4744 19.0199 20.9744 19.527 21.3438 20.1946C21.7131 20.8622 21.8977 21.6761 21.8977 22.6364ZM19.7415 22.6364C19.7415 22.0682 19.6605 21.5881 19.4986 21.196C19.3395 20.804 19.1094 20.5071 18.8082 20.3054C18.5099 20.1037 18.1506 20.0028 17.7301 20.0028C17.3125 20.0028 16.9531 20.1037 16.652 20.3054C16.3509 20.5071 16.1193 20.804 15.9574 21.196C15.7983 21.5881 15.7188 22.0682 15.7188 22.6364C15.7188 23.2045 15.7983 23.6847 15.9574 24.0767C16.1193 24.4687 16.3509 24.7656 16.652 24.9673C16.9531 25.169 17.3125 25.2699 17.7301 25.2699C18.1506 25.2699 18.5099 25.169 18.8082 24.9673C19.1094 24.7656 19.3395 24.4687 19.4986 24.0767C19.6605 23.6847 19.7415 23.2045 19.7415 22.6364ZM28.8565 21.1236C28.8082 20.9446 28.7372 20.7869 28.6435 20.6506C28.5497 20.5114 28.4347 20.3935 28.2983 20.2969C28.1619 20.2003 28.0057 20.1278 27.8295 20.0795C27.6534 20.0284 27.4602 20.0028 27.25 20.0028C26.8267 20.0028 26.4602 20.1051 26.1506 20.3097C25.8438 20.5142 25.6065 20.8125 25.4389 21.2045C25.2713 21.5937 25.1875 22.0668 25.1875 22.6236C25.1875 23.1832 25.2685 23.6605 25.4304 24.0554C25.5923 24.4503 25.8267 24.7514 26.1335 24.9588C26.4403 25.1662 26.8125 25.2699 27.25 25.2699C27.6364 25.2699 27.9631 25.2074 28.2301 25.0824C28.5 24.9545 28.7045 24.7741 28.8438 24.5412C28.983 24.3082 29.0526 24.0341 29.0526 23.7188L29.4446 23.7656H27.3224V22.2273H31.0852V23.3821C31.0852 24.1634 30.919 24.8324 30.5866 25.3892C30.2571 25.946 29.8026 26.3736 29.223 26.6719C28.6463 26.9702 27.983 27.1193 27.233 27.1193C26.4006 27.1193 25.669 26.9389 25.0384 26.5781C24.4077 26.2173 23.9162 25.7031 23.5639 25.0355C23.2116 24.3651 23.0355 23.5696 23.0355 22.6491C23.0355 21.9332 23.142 21.2983 23.3551 20.7443C23.5682 20.1875 23.8651 19.7159 24.2457 19.3295C24.6293 18.9432 25.0724 18.6506 25.5753 18.4517C26.081 18.2528 26.625 18.1534 27.2074 18.1534C27.7131 18.1534 28.1832 18.2259 28.6179 18.3707C29.0554 18.5156 29.4418 18.7202 29.777 18.9844C30.1151 19.2486 30.3892 19.5625 30.5994 19.9261C30.8097 20.2898 30.9403 20.6889 30.9915 21.1236H28.8565Z" fill="white"/>
</svg>
