<svg width="120" height="14" viewBox="0 0 120 14" fill="none" xmlns="http://www.w3.org/2000/svg">
<path opacity="0.5" d="M1.85047 0.50172C1.09047 0.50172 0.730469 0.86172 0.730469 1.60172V12.9017C0.730469 13.6417 1.09047 14.0017 1.85047 14.0017H6.61047C10.5704 14.0017 12.6904 11.8017 12.6904 7.26172C12.6904 2.70172 10.5504 0.50172 6.61047 0.50172H1.85047ZM3.09047 3.10172C3.09047 2.92172 3.17047 2.86172 3.35047 2.86172H6.61047C9.23047 2.86172 10.3304 4.16172 10.3304 7.24172C10.3304 10.3417 9.23047 11.6417 6.61047 11.6417H3.35047C3.17047 11.6417 3.09047 11.5817 3.09047 11.4017V3.10172ZM19.0965 0.50172C15.9165 0.50172 14.5765 2.02172 14.5765 4.18172C14.5765 5.66172 15.2165 6.70172 16.4765 7.22172C15.2365 7.74172 14.5365 8.78172 14.5365 10.3217C14.5365 12.4217 15.8365 14.0017 19.0365 14.0017H25.8765V11.6417H19.0365C17.6565 11.6417 16.9965 11.0017 16.9965 9.94172C16.9965 8.84172 17.6965 8.30172 19.0565 8.30172H25.7565V6.16172H19.1165C17.7565 6.16172 17.0565 5.66172 17.0565 4.56172C17.0565 3.52172 17.6765 2.86172 19.0965 2.86172H25.8565V0.50172H19.0965ZM32.1237 0.50172C29.1237 0.50172 27.9237 2.14172 27.9237 4.38172C27.9237 6.26172 28.7637 8.28172 32.3637 8.28172H35.5037C37.1637 8.28172 37.6237 9.08172 37.6237 9.96172C37.6237 10.9417 37.0437 11.6417 35.7637 11.6417H28.1637V14.0017H35.6837C38.7637 14.0017 39.9837 12.3217 39.9837 10.0417C39.9837 8.10172 39.1237 6.06172 35.4437 6.06172H32.2837C30.7037 6.06172 30.2837 5.28172 30.2837 4.46172C30.2837 3.52172 30.8237 2.86172 32.0437 2.86172H38.9637V0.50172H32.1237ZM47.7281 0.50172C43.8081 0.50172 41.6281 2.74172 41.6281 7.28172C41.6281 11.8017 43.7881 14.0017 47.7281 14.0017H49.5681C53.5081 14.0017 55.6681 11.8017 55.6681 7.28172C55.6681 2.74172 53.4881 0.50172 49.5681 0.50172H47.7281ZM49.5681 2.86172C52.1681 2.86172 53.2881 4.18172 53.2881 7.26172C53.2881 10.3617 52.1681 11.6417 49.5681 11.6417H47.7281C45.1081 11.6417 43.9881 10.3617 43.9881 7.28172C43.9881 4.18172 45.1281 2.86172 47.7281 2.86172H49.5681ZM57.9162 0.50172V9.34172C57.9162 12.0417 59.3162 14.0017 62.8962 14.0017H68.2762V11.6417H63.0362C60.9162 11.6417 60.2762 10.6217 60.2762 9.32172V0.50172H57.9162ZM75.7176 3.14172C75.8576 2.82172 76.0776 2.68172 76.3976 2.68172C76.7176 2.68172 76.9376 2.82172 77.0576 3.14172L81.1576 14.0017H83.7776L79.2176 2.00172C78.7376 0.741719 77.8176 0.261719 76.4176 0.261719C74.9976 0.261719 74.0776 0.741719 73.5776 2.00172L68.8376 14.0017H71.4376L75.7176 3.14172ZM82.9345 0.50172V2.86172H86.8745V14.0017H89.2545V2.86172H93.1945V0.50172H82.9345ZM99.0403 0.50172C95.8603 0.50172 94.5203 2.02172 94.5203 4.18172C94.5203 5.66172 95.1603 6.70172 96.4203 7.22172C95.1803 7.74172 94.4803 8.78172 94.4803 10.3217C94.4803 12.4217 95.7803 14.0017 98.9803 14.0017H105.82V11.6417H98.9803C97.6003 11.6417 96.9403 11.0017 96.9403 9.94172C96.9403 8.84172 97.6403 8.30172 99.0003 8.30172H105.7V6.16172H99.0603C97.7003 6.16172 97.0003 5.66172 97.0003 4.56172C97.0003 3.52172 97.6203 2.86172 99.0403 2.86172H105.8V0.50172H99.0403ZM112.067 0.50172C109.067 0.50172 107.867 2.14172 107.867 4.38172C107.867 6.26172 108.707 8.28172 112.307 8.28172H115.447C117.107 8.28172 117.567 9.08172 117.567 9.96172C117.567 10.9417 116.987 11.6417 115.707 11.6417H108.107V14.0017H115.627C118.707 14.0017 119.927 12.3217 119.927 10.0417C119.927 8.10172 119.067 6.06172 115.387 6.06172H112.227C110.647 6.06172 110.227 5.28172 110.227 4.46172C110.227 3.52172 110.767 2.86172 111.987 2.86172H118.907V0.50172H112.067Z" fill="white"/>
</svg>
