<svg width="131" height="24" viewBox="0 0 131 24" fill="none" xmlns="http://www.w3.org/2000/svg">
<path d="M38.3697 4.9784C39.9917 4.9784 41.3459 5.5755 42.4324 6.76969C43.5188 7.96389 44.062 9.445 44.062 11.213C44.062 12.9811 43.5188 14.4622 42.4324 15.6564C41.3459 16.8506 39.9917 17.4477 38.3697 17.4477C36.8548 17.4477 35.6 16.8971 34.6054 15.7959V21.8677H31.5068V5.21103H34.6054V6.63011C35.6 5.52897 36.8548 4.9784 38.3697 4.9784ZM35.5006 13.6324C36.0974 14.2683 36.8395 14.5862 37.727 14.5862C38.6145 14.5862 39.3567 14.2683 39.9535 13.6324C40.5502 12.9811 40.8486 12.1746 40.8486 11.213C40.8486 10.2515 40.5502 9.45275 39.9535 8.81688C39.3567 8.18102 38.6145 7.86308 37.727 7.86308C36.8395 7.86308 36.0974 8.18877 35.5006 8.84015C34.9038 9.47602 34.6054 10.267 34.6054 11.213C34.6054 12.1746 34.9038 12.9811 35.5006 13.6324Z" fill="#1B1C1D"/>
<path d="M49.1752 17.215H46.0765V0H49.1752V17.215Z" fill="#1B1C1D"/>
<path d="M56.6157 4.9784C58.1153 4.9784 59.3318 5.37388 60.2652 6.16484C61.1986 6.9558 61.6653 8.11122 61.6653 9.63111V17.215H58.5667V15.7494C57.6333 16.8816 56.3861 17.4477 54.8253 17.4477C53.7083 17.4477 52.7825 17.1375 52.048 16.5171C51.3288 15.8812 50.9693 15.0438 50.9693 14.0047C50.9693 11.7558 52.4918 10.4686 55.5369 10.1429L57.4649 9.9568C58.1994 9.91027 58.5667 9.59234 58.5667 9.00299C58.5667 8.56874 58.383 8.21979 58.0158 7.95613C57.6639 7.69248 57.2048 7.56065 56.6386 7.56065C56.0265 7.56065 55.5216 7.7235 55.1237 8.04919C54.7412 8.35937 54.4964 8.80138 54.3892 9.37521L51.3135 8.6773C51.4819 7.60718 52.0404 6.72317 52.9891 6.02526C53.9378 5.32735 55.1467 4.9784 56.6157 4.9784ZM55.5828 14.9585C56.3938 14.9585 57.09 14.6793 57.6715 14.121C58.2683 13.5626 58.5667 12.919 58.5667 12.1901V11.9342C58.4137 12.0583 58.0617 12.1591 57.5108 12.2366L55.5139 12.4693C55.0702 12.5313 54.7182 12.6786 54.4581 12.9113C54.198 13.1284 54.0679 13.4076 54.0679 13.7488C54.0679 14.1055 54.2056 14.4001 54.481 14.6328C54.7565 14.8499 55.1237 14.9585 55.5828 14.9585Z" fill="#1B1C1D"/>
<path d="M70.825 4.9784C72.2328 4.9784 73.3804 5.44367 74.2679 6.37421C75.1554 7.30475 75.5992 8.49119 75.5992 9.93353V17.215H72.5005V10.4919C72.5005 9.71641 72.2481 9.08054 71.7431 8.58425C71.2534 8.08796 70.6107 7.83982 69.815 7.83982C69.0346 7.83982 68.392 8.08796 67.887 8.58425C67.382 9.08054 67.1296 9.71641 67.1296 10.4919V17.215H64.0309V5.21103H67.1296V6.76969C68.0324 5.5755 69.2642 4.9784 70.825 4.9784Z" fill="#1B1C1D"/>
<path d="M78.8816 7.9794H76.4945V5.21103H78.8816V1.67497L81.9803 0.697906V5.21103H85.056V7.9794H81.9803V12.7484C81.9803 13.8806 82.5388 14.4467 83.6558 14.4467H85.056V17.215H83.6558C82.0338 17.215 80.8326 16.8351 80.0522 16.0751C79.2718 15.2997 78.8816 14.1287 78.8816 12.5623V7.9794Z" fill="#1B1C1D"/>
<path d="M87.9346 15.6564C86.7257 14.4622 86.1213 12.9811 86.1213 11.213C86.1213 9.445 86.7257 7.96389 87.9346 6.76969C89.1434 5.5755 90.6507 4.9784 92.4563 4.9784C94.262 4.9784 95.7692 5.5755 96.9781 6.76969C98.1869 7.96389 98.7913 9.445 98.7913 11.213C98.7913 12.9811 98.1869 14.4622 96.9781 15.6564C95.7692 16.8506 94.262 17.4477 92.4563 17.4477C90.6507 17.4477 89.1434 16.8506 87.9346 15.6564ZM89.3347 11.213C89.3347 12.1746 89.6331 12.9811 90.2299 13.6324C90.8267 14.2683 91.5688 14.5862 92.4563 14.5862C93.3438 14.5862 94.086 14.2683 94.6828 13.6324C95.2795 12.9811 95.5779 12.1746 95.5779 11.213C95.5779 10.2515 95.2795 9.45275 94.6828 8.81688C94.086 8.18102 93.3438 7.86308 92.4563 7.86308C91.5688 7.86308 90.8267 8.18877 90.2299 8.84015C89.6331 9.47602 89.3347 10.267 89.3347 11.213Z" fill="#1B1C1D"/>
<path d="M100.493 1.88435C100.493 1.35704 100.676 0.915033 101.043 0.558325C101.411 0.186108 101.854 0 102.375 0C102.88 0 103.316 0.186108 103.683 0.558325C104.05 0.915033 104.234 1.35704 104.234 1.88435C104.234 2.39614 104.05 2.83815 103.683 3.21037C103.316 3.58259 102.88 3.76869 102.375 3.76869C101.854 3.76869 101.411 3.58259 101.043 3.21037C100.676 2.83815 100.493 2.39614 100.493 1.88435ZM103.913 17.215H100.814V5.21103H103.913V17.215Z" fill="#1B1C1D"/>
<path d="M115.393 6.63011V0H118.491V17.215H115.393V15.7959C114.398 16.8971 113.143 17.4477 111.628 17.4477C110.006 17.4477 108.652 16.8506 107.566 15.6564C106.479 14.4622 105.936 12.9811 105.936 11.213C105.936 9.445 106.479 7.96389 107.566 6.76969C108.652 5.5755 110.006 4.9784 111.628 4.9784C113.143 4.9784 114.398 5.52897 115.393 6.63011ZM110.045 13.6324C110.642 14.2683 111.384 14.5862 112.271 14.5862C113.159 14.5862 113.901 14.2683 114.498 13.6324C115.094 12.9811 115.393 12.1746 115.393 11.213C115.393 10.2515 115.094 9.45275 114.498 8.81688C113.901 8.18102 113.159 7.86308 112.271 7.86308C111.384 7.86308 110.642 8.18877 110.045 8.84015C109.448 9.47602 109.15 10.267 109.15 11.213C109.15 12.1746 109.448 12.9811 110.045 13.6324Z" fill="#1B1C1D"/>
<path d="M120.276 13.9814L123.375 13.33C123.513 14.4156 124.217 14.9585 125.487 14.9585C126.114 14.9585 126.619 14.8421 127.002 14.6095C127.384 14.3614 127.575 14.0589 127.575 13.7022C127.575 13.361 127.399 13.0896 127.047 12.888C126.711 12.6864 126.282 12.5546 125.762 12.4925C125.257 12.4305 124.699 12.3297 124.087 12.1901C123.49 12.0505 122.931 11.8799 122.411 11.6783C121.906 11.4767 121.478 11.1277 121.126 10.6314C120.789 10.1352 120.621 9.51479 120.621 8.77036C120.621 7.68473 121.08 6.7852 121.998 6.07179C122.931 5.34286 124.094 4.9784 125.487 4.9784C126.879 4.9784 128.027 5.29633 128.93 5.9322C129.832 6.55257 130.368 7.39005 130.536 8.44467L127.461 9.09605C127.308 8.01042 126.65 7.4676 125.487 7.4676C124.982 7.4676 124.561 7.57616 124.224 7.79329C123.903 8.01041 123.742 8.28958 123.742 8.63078C123.742 8.98748 123.911 9.26665 124.247 9.46826C124.599 9.66988 125.028 9.80171 125.533 9.86374C126.053 9.92578 126.611 10.0343 127.208 10.1894C127.82 10.329 128.379 10.4996 128.884 10.7012C129.404 10.9028 129.832 11.2596 130.169 11.7714C130.521 12.2676 130.697 12.8958 130.697 13.6557C130.697 14.7258 130.192 15.6253 129.182 16.3543C128.172 17.0832 126.94 17.4477 125.487 17.4477C124.033 17.4477 122.839 17.1375 121.906 16.5171C120.988 15.8812 120.445 15.036 120.276 13.9814Z" fill="#1B1C1D"/>
<path d="M19.5653 1.30205C19.4877 1.04018 19.2808 0.804591 18.9963 0.752184C18.7117 0.699774 18.4272 0.778298 18.2462 0.98776C18.2202 1.01406 15.8146 3.63201 11.2362 4.07706H11.1844C11.1068 4.07706 9.47716 4.33893 7.66651 5.28142C5.20919 6.538 3.57952 8.42294 2.95871 10.7268C2.59658 12.1143 2.62238 13.6067 3.0363 15.0464C3.60537 16.9313 4.64001 18.4235 6.06274 19.4184C5.85578 19.6803 5.49367 20.0729 5.05393 20.4918L2.23446 22.3507C1.66539 22.6125 1.07049 22.8218 0.397808 22.979C0.113261 23.0314 -0.0419091 23.3194 0.00987588 23.6074C0.0616608 23.843 0.26862 24 0.501396 24H0.630769C4.22629 23.1622 6.32152 20.8061 6.99407 19.9421C7.53737 20.204 8.10626 20.4132 8.72716 20.5442C9.37384 20.6751 10.0463 20.7536 10.693 20.7536C12.9176 20.7536 15.1164 19.9421 16.8235 18.3976C19.5656 15.9887 22.2561 11.0144 19.5656 1.30219L19.5653 1.30205ZM18.1168 5.25515C18.091 5.43849 17.4443 9.9675 13.0986 11.6692C13.0728 11.6692 13.0728 11.6953 13.0468 11.6953C12.995 11.7214 12.426 11.8786 11.7017 12.3498C10.7962 12.9257 9.6065 14.0253 8.77866 15.9102C8.5975 16.3029 8.44233 16.7481 8.31315 17.2192C8.26136 17.4548 8.0544 17.6118 7.82163 17.6118C7.76984 17.6118 7.71824 17.6118 7.69225 17.5857C7.40771 17.5072 7.25254 17.2192 7.33012 16.9312C8.70126 11.9833 12.3483 10.8052 12.7622 10.6743C12.9434 10.5957 13.0985 10.5172 13.2795 10.4387C15.5559 9.33915 16.5129 7.27086 16.875 6.06668C17.0302 5.51682 17.1078 5.1503 17.1078 5.09808C17.1336 4.81009 17.3923 4.60062 17.6769 4.65305C17.9616 4.70528 18.1686 4.96715 18.1168 5.25514L18.1168 5.25515Z" fill="#67CE67"/>
</svg>
