<svg width="53" height="50" viewBox="0 0 53 50" fill="none" xmlns="http://www.w3.org/2000/svg">
<path d="M52.359 21.3567C53.1699 16.6386 50.0527 12.1346 45.3814 11.2128C46.1438 6.4588 42.9283 1.94825 38.1726 1.12917C37.6747 1.04361 37.1673 1 36.6673 1C32.3687 1 28.7193 4.07916 27.989 8.32092C27.925 8.69298 27.8847 9.07277 27.8698 9.45476C24.9623 10.5643 22.8629 13.0965 22.3308 16.1861C22.0063 18.069 22.3071 20.01 23.1776 21.7052C22.683 22.5829 22.3452 23.5325 22.1724 24.5338C21.4366 28.8081 23.9317 32.9753 28.0061 34.3641C29.8051 37.4195 32.9727 39.4173 36.4747 39.7414V47.4156L11.7174 47.4161V42.9846C15.3601 42.6523 18.261 39.5875 18.3095 35.8625C18.3134 35.5655 18.2985 35.2674 18.2659 34.9721C19.5924 34.0784 20.4922 32.6966 20.7659 31.1064C21.032 29.5606 20.6804 28.004 19.7762 26.7227C18.9526 25.5563 17.7596 24.7448 16.3874 24.4098C16.5514 22.9767 16.187 21.5519 15.3485 20.3652C14.4437 19.0839 13.0946 18.2321 11.5489 17.9666C11.2171 17.9097 10.8804 17.8805 10.5464 17.8805C7.6842 17.8805 5.25368 19.9307 4.76628 22.757C4.73482 22.9431 4.71163 23.1324 4.69838 23.3223C2.85349 24.094 1.52865 25.7401 1.18539 27.7352C0.977822 28.9391 1.15392 30.1767 1.68 31.2725C1.39018 31.8179 1.19091 32.4047 1.08548 33.0207C0.601354 35.8311 2.21546 38.5729 4.86895 39.5329C6.01826 41.4186 7.96634 42.6706 10.1347 42.9532V47.4174H2.49257V49H50.9954V47.4174L38.0577 47.4163V39.762C43.776 39.4606 48.3964 34.7314 48.4714 28.9429C48.4792 28.3992 48.446 27.8538 48.3726 27.3111C50.4907 25.9802 51.9321 23.8384 52.3593 21.357L52.359 21.3567ZM6.09604 38.4942L5.94037 38.2116L5.63068 38.1172C3.56223 37.4962 2.27822 35.42 2.6448 33.2881C2.74195 32.7245 2.94565 32.1951 3.25202 31.7148L3.51147 31.308L3.26747 30.8907C2.7596 30.0201 2.57357 28.9956 2.74416 28.0036C3.01851 26.4071 4.15512 25.1181 5.70856 24.638L6.28046 24.4608L6.26555 23.8618C6.25838 23.5792 6.2788 23.2976 6.32572 23.0255C6.68177 20.9616 8.45593 19.4633 10.5459 19.4633C10.7899 19.4633 11.0366 19.4849 11.2795 19.5268C12.4078 19.7217 13.3943 20.3432 14.0551 21.2789C14.7159 22.2145 14.9731 23.3517 14.7783 24.479C14.7562 24.607 14.7258 24.7324 14.6927 24.8555L14.478 25.7591L15.4065 25.8485C15.5064 25.8579 15.6052 25.8667 15.7073 25.8844C16.8356 26.0793 17.821 26.7008 18.4818 27.637C19.1425 28.5727 19.3998 29.7099 19.2049 30.8387C18.9819 32.1348 18.1881 33.2411 17.0261 33.8753L16.521 34.1508L16.627 34.7166C16.6965 35.0876 16.7297 35.4662 16.7253 35.8433C16.6883 38.7055 14.4951 41.0692 11.7157 41.3938V36.0226L14.4929 35.2421L14.0645 33.7179L11.7157 34.3782V29.2609H10.1331V31.3283L8.14687 29.8555L7.20511 31.1273L10.1342 33.2972V41.3517C8.44164 41.0691 6.94071 40.0269 6.0962 38.4939L6.09604 38.4942ZM47.126 26.2101L46.6203 26.4861L46.7274 27.0519C46.8428 27.6702 46.8986 28.2989 46.8886 28.9227C46.8251 33.85 42.9141 37.8819 38.0574 38.1801L38.058 35.6048L42.3786 33.1953L41.6069 31.8136L38.0574 33.7937L38.058 24.5065L42.7794 23.1783L42.351 21.6548L38.058 22.8626V18.5194H36.4754V20.845L33.0368 18.2985L32.0951 19.5703L36.4753 22.8157V30.99L31.9422 27.8385L32.8999 24.1041L31.3664 23.711L30.556 26.8741L29.1467 25.8943L28.243 27.1938L36.4747 32.9188V38.1392C33.4469 37.8102 30.7238 36.0327 29.2345 33.3261L29.0794 33.0434L28.7692 32.9501C25.2793 31.9002 23.1136 28.3971 23.7319 24.8051C23.8959 23.8545 24.2409 22.9613 24.7559 22.1499L25.0148 21.743L24.7719 21.3268C23.9146 19.8595 23.6016 18.1295 23.8898 16.4574C24.3529 13.7641 26.2684 11.5887 28.8889 10.7782L29.4619 10.601L29.4459 10.0021C29.4337 9.52511 29.4679 9.05092 29.548 8.59109C30.1469 5.1106 33.1411 2.58456 36.6662 2.58456C37.0775 2.58456 37.4943 2.62044 37.9033 2.69055C41.8332 3.36733 44.4812 7.11504 43.8044 11.0465C43.7675 11.2618 43.7172 11.4715 43.6615 11.6785L43.439 12.5822L44.368 12.6716C44.5447 12.6882 44.7202 12.7047 44.8974 12.7351C48.8283 13.4119 51.4764 17.1606 50.7997 21.0905C50.4232 23.2759 49.084 25.1429 47.126 26.2099L47.126 26.2101Z" fill="white" stroke="white" stroke-width="0.5"/>
</svg>
