<svg width="48" height="48" viewBox="0 0 48 48" fill="none" xmlns="http://www.w3.org/2000/svg">
<rect width="48" height="48" rx="12" fill="white"/>
<rect x="0.5" y="0.5" width="47" height="47" rx="11.5" stroke="#1B1C1D" stroke-opacity="0.08"/>
<path d="M29.9195 18.62C29.8095 18.37 29.6195 18.18 29.3795 18.08C29.2495 18.02 29.1295 18 28.9995 18H18.9995C18.4395 18 17.9995 18.44 17.9995 19C17.9995 19.55 18.4395 20 18.9995 20H26.5895L18.2895 28.29C17.8895 28.67 17.8895 29.31 18.2795 29.7H18.2695C18.6495 30.09 19.2895 30.09 19.6795 29.7C19.6795 29.69 19.6795 29.69 19.6795 29.69L27.9695 21.39V28.98C27.9695 29.53 28.4095 29.98 28.9695 29.98C29.5195 29.98 29.9695 29.53 29.9695 28.98V18.98C29.9595 18.84 29.9395 18.72 29.8895 18.6L29.9195 18.62Z" fill="black"/>
</svg>
