<svg width="51" height="51" viewBox="0 0 51 51" fill="none" xmlns="http://www.w3.org/2000/svg">
<path d="M18.4781 7.59907C18.999 6.74741 20.0681 6.41028 20.9833 6.80911L24.3222 8.26417C24.8571 8.49728 25.4672 8.48516 25.9924 8.23099L29.2709 6.6445C30.1695 6.20964 31.2512 6.50405 31.8055 7.33436L33.8277 10.3636C34.1516 10.8489 34.6714 11.1685 35.2507 11.2386L38.8664 11.6765C39.8575 11.7965 40.6083 12.629 40.6257 13.6271L40.6891 17.2687C40.6993 17.8521 40.9638 18.402 41.4131 18.7742L44.2182 21.0974C44.9871 21.7341 45.1686 22.8404 44.6436 23.6895L42.7282 26.7873C42.4213 27.2836 42.3465 27.8892 42.5233 28.4452L43.6271 31.9161C43.9296 32.8675 43.4843 33.8962 42.5835 34.3267L39.2974 35.8972C38.7709 36.1488 38.3806 36.6178 38.2287 37.1812L37.2807 40.6978C37.0209 41.6617 36.0901 42.2864 35.0996 42.1616L31.486 41.7061C30.9071 41.6332 30.3252 41.8167 29.8928 42.2085L27.1941 44.6544C26.4544 45.3248 25.3336 45.3471 24.5678 44.7066L21.7741 42.3698C21.3266 41.9954 20.7378 41.8352 20.1623 41.9311L16.5696 42.5296C15.5849 42.6937 14.6299 42.1065 14.332 41.1537L13.2452 37.6774C13.0711 37.1205 12.6624 36.6674 12.1264 36.4369L8.78044 34.9981C7.86332 34.6038 7.37747 33.5935 7.64199 32.6309L8.60706 29.1189C8.76168 28.5562 8.66286 27.9541 8.33654 27.4704L6.29962 24.4511C5.7413 23.6235 5.87877 22.5109 6.62174 21.8441L9.33233 19.4114C9.76658 19.0217 10.009 18.4617 9.99597 17.8784L9.91478 14.2371C9.89252 13.239 10.6097 12.3774 11.5952 12.2181L15.1907 11.6371C15.7667 11.544 16.2734 11.204 16.5778 10.7062L18.4781 7.59907Z" fill="#EEB335"/>
<path d="M20.812 30.156C19.892 30.156 19.104 29.948 18.448 29.532C17.8 29.116 17.308 28.576 16.972 27.912C16.644 27.24 16.48 26.532 16.48 25.788C16.48 25.036 16.644 24.328 16.972 23.664C17.308 22.992 17.8 22.452 18.448 22.044C19.104 21.628 19.892 21.42 20.812 21.42C21.732 21.42 22.516 21.628 23.164 22.044C23.82 22.452 24.312 22.992 24.64 23.664C24.976 24.328 25.144 25.036 25.144 25.788C25.144 26.532 24.976 27.24 24.64 27.912C24.312 28.576 23.82 29.116 23.164 29.532C22.508 29.948 21.724 30.156 20.812 30.156ZM20.812 28.296C21.308 28.296 21.732 28.188 22.084 27.972C22.436 27.748 22.7 27.448 22.876 27.072C23.06 26.688 23.152 26.26 23.152 25.788C23.152 25.052 22.948 24.452 22.54 23.988C22.132 23.516 21.556 23.28 20.812 23.28C20.06 23.28 19.48 23.516 19.072 23.988C18.672 24.452 18.472 25.052 18.472 25.788C18.472 26.516 18.676 27.116 19.084 27.588C19.492 28.06 20.068 28.296 20.812 28.296ZM30.2411 30.168C29.4251 30.168 28.7011 29.976 28.0691 29.592C27.4451 29.208 26.9611 28.684 26.6171 28.02C26.2731 27.356 26.1011 26.616 26.1011 25.8C26.1011 24.992 26.2731 24.256 26.6171 23.592C26.9611 22.92 27.4411 22.392 28.0571 22.008C28.6811 21.624 29.3931 21.432 30.1931 21.432C31.2811 21.432 32.1211 21.656 32.7131 22.104C33.3131 22.544 33.7371 23.108 33.9851 23.796L32.0891 24.444C31.9531 24.092 31.7491 23.812 31.4771 23.604C31.2131 23.396 30.8251 23.292 30.3131 23.292C29.8811 23.292 29.4931 23.408 29.1491 23.64C28.8131 23.864 28.5531 24.168 28.3691 24.552C28.1851 24.928 28.0931 25.344 28.0931 25.8C28.0931 26.256 28.1891 26.676 28.3811 27.06C28.5731 27.444 28.8411 27.748 29.1851 27.972C29.5371 28.196 29.9371 28.308 30.3851 28.308C31.4171 28.308 32.0651 27.832 32.3291 26.88H30.7691V25.2H34.3091V30H33.0131L32.7131 29.352C32.5531 29.544 32.2611 29.728 31.8371 29.904C31.4211 30.08 30.8891 30.168 30.2411 30.168Z" fill="white"/>
</svg>
