<svg width="10" height="10" viewBox="0 0 10 10" fill="none" xmlns="http://www.w3.org/2000/svg">
<path d="M0.840966 1.65695L7.1607 1.65695L0.249792 8.55953L0.249792 8.56786C-0.0749377 8.90092 -0.0749378 9.42548 0.249792 9.75021C0.582848 10.0833 1.10741 10.0833 1.43214 9.75021L8.33472 2.8393L8.33472 9.15903C8.33472 9.62531 8.70941 9.99167 9.16736 9.99167C9.63364 9.99167 10 9.62531 10 9.15903L10 0.83264C10 0.724397 9.98335 0.624478 9.93339 0.516235C9.85013 0.316402 9.69192 0.158201 9.48376 0.0666112L9.4846 0.0666112C9.38468 0.0249795 9.28476 0.00832647 9.16819 -7.27189e-08L0.841799 -8.00635e-07C0.383846 -8.40671e-07 0.00915898 0.374687 0.00915894 0.832639C0.0091589 1.29892 0.383846 1.66528 0.841799 1.66528L0.840966 1.65695Z" fill="#1B1C1D"/>
</svg>
