<svg width="17" height="19" viewBox="0 0 17 19" fill="none" xmlns="http://www.w3.org/2000/svg">
<path d="M16.0847 0.461943C16.0209 0.248065 15.8508 0.0556523 15.6169 0.0128506C15.3829 -0.0299548 15.149 0.0341785 15.0002 0.205252C14.9789 0.226729 13.0012 2.36488 9.23732 2.72837H9.19474C9.13096 2.72837 7.79119 2.94225 6.30265 3.71201C4.28248 4.73829 2.94273 6.27778 2.43236 8.15941C2.13465 9.29264 2.15586 10.5115 2.49614 11.6873C2.96398 13.2268 3.81456 14.4455 4.98419 15.2581C4.81405 15.4719 4.51635 15.7926 4.15484 16.1348L1.83696 17.6529C1.36912 17.8668 0.880052 18.0377 0.327039 18.1661C0.093112 18.2089 -0.0344535 18.4441 0.00811898 18.6793C0.0506915 18.8717 0.220833 19 0.412199 19H0.518556C3.47444 18.3157 5.19694 16.3914 5.74984 15.6858C6.19648 15.8997 6.66417 16.0706 7.17461 16.1775C7.70625 16.2845 8.25911 16.3486 8.79074 16.3486C10.6196 16.3486 12.4272 15.6858 13.8306 14.4243C16.0849 12.4569 18.2967 8.3943 16.0849 0.462058L16.0847 0.461943ZM14.8939 3.69055C14.8727 3.84029 14.341 7.53926 10.7684 8.92907C10.7472 8.92907 10.7472 8.9504 10.7258 8.9504C10.6832 8.97173 10.2154 9.10014 9.61998 9.48494C8.87561 9.95534 7.89752 10.8534 7.21695 12.3929C7.06802 12.7135 6.94046 13.0771 6.83425 13.4619C6.79168 13.6543 6.62154 13.7826 6.43017 13.7826C6.3876 13.7826 6.34517 13.7826 6.32381 13.7613C6.08989 13.6971 5.96232 13.4619 6.02611 13.2267C7.15332 9.18559 10.1516 8.22341 10.4918 8.1165C10.6408 8.05237 10.7683 7.98824 10.9171 7.9241C12.7885 7.02607 13.5753 5.33684 13.873 4.35335C14.0006 3.90426 14.0643 3.60492 14.0643 3.56227C14.0856 3.32706 14.2983 3.15598 14.5322 3.1988C14.7663 3.24145 14.9364 3.45533 14.8938 3.69054L14.8939 3.69055Z" fill="#539670"/>
</svg>
