<svg width="16" height="15" viewBox="0 0 16 15" fill="none" xmlns="http://www.w3.org/2000/svg">
<path d="M13.6 3.33333H12.8V2.5C12.8 1.11667 11.72 0 10.4 0H2.4C1.072 0 0 1.11667 0 2.5V12.5C0 13.875 1.072 15 2.4 15H13.6C14.92 15 16 13.875 16 12.5V5.83333C16 4.45 14.92 3.33333 13.6 3.33333ZM2.4 1.66667H10.4C10.84 1.66667 11.2 2.03333 11.2 2.5V3.33333H2.4C1.952 3.33333 1.6 2.95833 1.6 2.5C1.6 2.03333 1.952 1.66667 2.4 1.66667ZM14.4 10H13.6C13.152 10 12.8 9.625 12.8 9.16667C12.8 8.7 13.152 8.33333 13.6 8.33333H14.4V10ZM14.4 6.66667H13.6C12.272 6.66667 11.2 7.78333 11.2 9.16667C11.2 10.5417 12.272 11.6667 13.6 11.6667H14.4V12.5C14.4 12.9583 14.04 13.3333 13.6 13.3333H2.4C1.952 13.3333 1.6 12.9583 1.6 12.5V4.85833C1.856 4.95 2.12 5 2.4 5H13.6C14.04 5 14.4 5.36667 14.4 5.83333V6.66667Z" fill="#1B1C1D"/>
</svg>
